<?xml version="1.0" standalone="no"?>
<!DOCTYPE svg PUBLIC "-//W3C//DTD SVG 1.1//EN" "http://www.w3.org/Graphics/SVG/1.1/DTD/svg11.dtd" >
<svg xmlns="http://www.w3.org/2000/svg">
<metadata>Generated by IcoMoon</metadata>
<defs>
<font id="icontract" horiz-adv-x="1024">
<font-face units-per-em="1024" ascent="960" descent="-64" />
<missing-glyph horiz-adv-x="1024" />
<glyph unicode="&#x20;" horiz-adv-x="512" d="" />
<glyph unicode="&#xe900;" glyph-name="alarm-fill" d="M352 928c0 17.673 14.327 32 32 32v0h256c17.673 0 32-14.327 32-32s-14.327-32-32-32v0h-64v-68.48c218.326-32.504 383.904-218.667 383.904-443.502 0-136.327-60.875-258.436-156.925-340.627l-0.611-0.511 52.288-52.224c5.798-5.798 9.384-13.808 9.384-22.656 0-17.695-14.345-32.040-32.040-32.040-8.848 0-16.858 3.586-22.656 9.384v0l-59.136 59.2c-67.348-43.005-149.464-68.544-237.546-68.544-0.233 0-0.466 0-0.698 0.001h0.036c-0.227 0-0.495-0.001-0.764-0.001-88.039 0-170.119 25.515-239.248 69.555l1.804-1.074-59.136-59.136c-5.798-5.798-13.808-9.384-22.656-9.384-17.695 0-32.040 14.345-32.040 32.040 0 8.848 3.586 16.858 9.384 22.656v0l52.288 52.224c-96.661 82.702-157.536 204.811-157.536 341.138 0 224.836 165.578 410.998 381.448 443.201l2.456 0.301v68.48h-64.064c-17.673 0-32 14.327-32 32v0zM55.040 615.232c-33.774 29.491-54.992 72.628-54.992 120.72 0 88.366 71.634 160 160 160 48.092 0 91.229-21.218 120.559-54.804l0.161-0.188c-97.73-50.347-175.381-127.998-224.378-222.854l-1.35-2.874zM864 896c-48.192 0-91.456-21.312-120.768-55.040 97.73-50.347 175.381-127.998 224.378-222.854l1.35-2.874c33.806 29.493 55.047 72.65 55.047 120.768 0 88.366-71.634 160-160 160-0.003 0-0.005 0-0.008 0v0zM544 640c0 17.673-14.327 32-32 32s-32-14.327-32-32v0-248.448l-92.608-185.216c-2.208-4.233-3.503-9.244-3.503-14.558 0-17.673 14.327-32 32-32 12.534 0 23.384 7.206 28.635 17.701l0.084 0.185 96 192c2.138 4.176 3.392 9.109 3.392 14.336v0 256z" />
<glyph unicode="&#xe901;" glyph-name="alarm" d="M512 0v0c-212.077 0-384 171.923-384 384s171.923 384 384 384v0c212.077 0 384-171.923 384-384s-171.923-384-384-384zM512-64c247.424 0 448 200.576 448 448s-200.576 448-448 448v0c-247.424 0-448-200.576-448-448s200.576-448 448-448v0zM512 672c17.673 0 32-14.327 32-32v0-256c0-5.227-1.254-10.16-3.476-14.517l0.084 0.181-96-192c-5.335-10.68-16.185-17.886-28.719-17.886-17.673 0-32 14.327-32 32 0 5.314 1.295 10.325 3.587 14.735l-0.084-0.178 92.608 185.216v248.448c0 17.673 14.327 32 32 32v0zM55.040 615.232c-33.774 29.491-54.992 72.628-54.992 120.72 0 88.366 71.634 160 160 160 48.092 0 91.229-21.218 120.559-54.804l0.161-0.188c-97.73-50.347-175.381-127.998-224.378-222.854l-1.35-2.874zM743.232 840.96c29.491 33.774 72.628 54.992 120.72 54.992 88.366 0 160-71.634 160-160 0-48.092-21.218-91.229-54.804-120.559l-0.188-0.161c-50.347 97.73-127.998 175.381-222.854 224.378l-2.874 1.35zM745.344 54.656c5.794 5.808 13.805 9.401 22.656 9.401s16.862-3.593 22.655-9.401l64.001-64.001c5.798-5.798 9.384-13.808 9.384-22.656 0-17.695-14.345-32.040-32.040-32.040-8.848 0-16.858 3.586-22.656 9.384v0l-64 64c-5.808 5.794-9.401 13.805-9.401 22.656s3.593 16.862 9.401 22.655l0.001 0.001zM278.656 54.656c-5.794 5.808-13.805 9.401-22.656 9.401s-16.862-3.593-22.655-9.401l-64.001-64.001c-5.798-5.798-9.384-13.808-9.384-22.656 0-17.695 14.345-32.040 32.040-32.040 8.848 0 16.858 3.586 22.656 9.384v0l64 64c5.808 5.794 9.401 13.805 9.401 22.656s-3.593 16.862-9.401 22.655l-0.001 0.001zM352 928c0 17.673 14.327 32 32 32v0h256c17.673 0 32-14.327 32-32s-14.327-32-32-32v0h-256c-17.673 0-32 14.327-32 32v0zM448 896h128v-128h-128v128z" />
<glyph unicode="&#xe902;" glyph-name="alt" d="M64 96c0-17.673 14.327-32 32-32v0h243.008c0.007 0 0.015 0 0.023 0 12.040 0 22.527 6.65 27.989 16.477l0.083 0.163 336.896 687.36h224c17.673 0 32 14.327 32 32s-14.327 32-32 32v0h-243.008c-0.007 0-0.015 0-0.023 0-12.040 0-22.527-6.65-27.989-16.477l-0.083-0.163-336.896-687.36h-224c-17.673 0-32-14.327-32-32v0zM704 96c0-17.673 14.327-32 32-32v0h192c17.673 0 32 14.327 32 32s-14.327 32-32 32v0h-192c-17.673 0-32-14.327-32-32v0z" />
<glyph unicode="&#xe903;" glyph-name="app-indicator" d="M352 832c-123.712 0-224-100.288-224-224v0-320c0-123.712 100.288-224 224-224v0h320c123.712 0 224 100.288 224 224v0 160c0 17.673 14.327 32 32 32s32-14.327 32-32v0-160c0-159.058-128.942-288-288-288v0h-320c-159.058 0-288 128.942-288 288v0 320c0 159.058 128.942 288 288 288v0h160c17.673 0 32-14.327 32-32s-14.327-32-32-32v0h-160zM1024 768c0-106.039-85.961-192-192-192s-192 85.961-192 192v0c0 106.039 85.961 192 192 192s192-85.961 192-192v0z" />
<glyph unicode="&#xe904;" glyph-name="app" d="M704 832v0c106.039 0 192-85.961 192-192v-384c0-106.039-85.961-192-192-192h-384c-106.039 0-192 85.961-192 192v384c0 106.039 85.961 192 192 192h384zM320 896c-141.385 0-256-114.615-256-256v0-384c0-141.385 114.615-256 256-256v0h384c141.385 0 256 114.615 256 256v0 384c0 141.385-114.615 256-256 256v0h-384z" />
<glyph unicode="&#xe905;" glyph-name="archive-fill" d="M809.152 0h-594.304c-85.504 0-150.848 73.92-150.848 160v480h896v-480c0-86.080-65.344-160-150.848-160zM384 512c-17.673 0-32-14.327-32-32s14.327-32 32-32v0h256c17.673 0 32 14.327 32 32s-14.327 32-32 32v0h-256zM51.2 896h921.6c28.277 0 51.2-22.923 51.2-51.2v-76.8c0-28.277-22.923-51.2-51.2-51.2h-921.6c-28.277 0-51.2 22.923-51.2 51.2v76.8c0 28.277 22.923 51.2 51.2 51.2z" />
<glyph unicode="&#xe906;" glyph-name="archive" d="M128 640v-480c0-55.296 41.088-96 86.848-96h594.304c45.76 0 86.848 40.704 86.848 96v480h64v-480c0-86.080-65.344-160-150.848-160h-594.304c-85.504 0-150.848 73.92-150.848 160v480h64zM352 480v0c0-17.673 14.327-32 32-32h256c17.673 0 32 14.327 32 32s-14.327 32-32 32h-256c-17.673 0-32-14.327-32-32zM960 832v-128h-896v128h896zM64 896c-35.346 0-64-28.654-64-64v0-128c0-35.346 28.654-64 64-64v0h896c35.346 0 64 28.654 64 64v0 128c0 35.346-28.654 64-64 64v0h-896z" />
<glyph unicode="&#xe907;" glyph-name="arrow-90deg-down" d="M169.344 342.656c5.794 5.808 13.805 9.401 22.656 9.401s16.862-3.593 22.655-9.401l169.345-169.409 169.344 169.408c5.798 5.798 13.808 9.384 22.656 9.384 17.695 0 32.040-14.345 32.040-32.040 0-8.848-3.586-16.858-9.384-22.656v0l-192-192c-5.794-5.808-13.805-9.401-22.656-9.401s-16.862 3.593-22.655 9.401l-192.001 192.001c-5.808 5.794-9.401 13.805-9.401 22.656s3.593 16.862 9.401 22.655l0.001 0.001zM384 128c-17.673 0-32 14.327-32 32v0 416c0 88.366 71.634 160 160 160v0h352c17.673 0 32-14.327 32-32s-14.327-32-32-32v0h-352c-53.019 0-96-42.981-96-96v0-416c0-17.673-14.327-32-32-32v0z" />
<glyph unicode="&#xe908;" glyph-name="arrow-90deg-left" d="M390.656 806.656c5.808-5.794 9.401-13.805 9.401-22.656s-3.593-16.862-9.401-22.655l-169.409-169.345 169.408-169.344c5.798-5.798 9.384-13.808 9.384-22.656 0-17.695-14.345-32.040-32.040-32.040-8.848 0-16.858 3.586-22.656 9.384v0l-192 192c-5.808 5.794-9.401 13.805-9.401 22.656s3.593 16.862 9.401 22.655l192.001 192.001c5.794 5.808 13.805 9.401 22.656 9.401s16.862-3.593 22.655-9.401l0.001-0.001zM176 592c0 17.673 14.327 32 32 32v0h416c88.366 0 160-71.634 160-160v0-352c0-17.673-14.327-32-32-32s-32 14.327-32 32v0 352c0 53.019-42.981 96-96 96v0h-416c-17.673 0-32 14.327-32 32v0z" />
<glyph unicode="&#xe909;" glyph-name="arrow-90deg-right" d="M633.344 806.656c-5.808-5.794-9.401-13.805-9.401-22.656s3.593-16.862 9.401-22.655l169.409-169.345-169.408-169.344c-5.798-5.798-9.384-13.808-9.384-22.656 0-17.695 14.345-32.040 32.040-32.040 8.848 0 16.858 3.586 22.656 9.384v0l192 192c5.808 5.794 9.401 13.805 9.401 22.656s-3.593 16.862-9.401 22.655l-192.001 192.001c-5.794 5.808-13.805 9.401-22.656 9.401s-16.862-3.593-22.655-9.401l-0.001-0.001zM848 592c0 17.673-14.327 32-32 32v0h-416c-88.366 0-160-71.634-160-160v0-352c0-17.673 14.327-32 32-32s32 14.327 32 32v0 352c0 53.019 42.981 96 96 96v0h416c17.673 0 32 14.327 32 32v0z" />
<glyph unicode="&#xe90a;" glyph-name="arrow-90deg-up" d="M169.344 521.344c5.794-5.808 13.805-9.401 22.656-9.401s16.862 3.593 22.655 9.401l169.345 169.409 169.344-169.408c5.798-5.798 13.808-9.384 22.656-9.384 17.695 0 32.040 14.345 32.040 32.040 0 8.848-3.586 16.858-9.384 22.656v0l-192 192c-5.794 5.808-13.805 9.401-22.656 9.401s-16.862-3.593-22.655-9.401l-192.001-192.001c-5.808-5.794-9.401-13.805-9.401-22.656s3.593-16.862 9.401-22.655l0.001-0.001zM384 736c-17.673 0-32-14.327-32-32v0-416c0-88.366 71.634-160 160-160v0h352c17.673 0 32 14.327 32 32s-14.327 32-32 32v0h-352c-53.019 0-96 42.981-96 96v0 416c0 17.673-14.327 32-32 32v0z" />
<glyph unicode="&#xe90b;" glyph-name="arrow-bar-down" d="M726.656 310.656c5.808-5.794 9.401-13.805 9.401-22.656s-3.593-16.862-9.401-22.655l-192.001-192.001c-5.794-5.808-13.805-9.401-22.656-9.401s-16.862 3.593-22.655 9.401l-192.001 192.001c-5.798 5.798-9.384 13.808-9.384 22.656 0 17.695 14.345 32.040 32.040 32.040 8.848 0 16.858-3.586 22.656-9.384v0l169.344-169.408 169.344 169.408c5.794 5.808 13.805 9.401 22.656 9.401s16.862-3.593 22.655-9.401l0.001-0.001zM512 576c17.673 0 32-14.327 32-32v0-416c0-17.673-14.327-32-32-32s-32 14.327-32 32v0 416c0 17.673 14.327 32 32 32v0zM128 736c0 17.673 14.327 32 32 32v0h704c17.673 0 32-14.327 32-32s-14.327-32-32-32v0h-704c-17.673 0-32 14.327-32 32v0z" />
<glyph unicode="&#xe90c;" glyph-name="arrow-bar-left" d="M374.656 662.656c-5.794 5.808-13.805 9.401-22.656 9.401s-16.862-3.593-22.655-9.401l-192.001-192.001c-5.808-5.794-9.401-13.805-9.401-22.656s3.593-16.862 9.401-22.655l192.001-192.001c5.798-5.798 13.808-9.384 22.656-9.384 17.695 0 32.040 14.345 32.040 32.040 0 8.848-3.586 16.858-9.384 22.656v0l-169.408 169.344 169.408 169.344c5.808 5.794 9.401 13.805 9.401 22.656s-3.593 16.862-9.401 22.655l-0.001 0.001zM640 448c0 17.673-14.327 32-32 32v0h-416c-17.673 0-32-14.327-32-32s14.327-32 32-32v0h416c17.673 0 32 14.327 32 32v0zM800 64c-17.673 0-32 14.327-32 32v0 704c0 17.673 14.327 32 32 32s32-14.327 32-32v0-704c0-17.673-14.327-32-32-32v0z" />
<glyph unicode="&#xe90d;" glyph-name="arrow-bar-right" d="M649.344 662.656c5.794 5.808 13.805 9.401 22.656 9.401s16.862-3.593 22.655-9.401l192.001-192.001c5.808-5.794 9.401-13.805 9.401-22.656s-3.593-16.862-9.401-22.655l-192.001-192.001c-5.798-5.798-13.808-9.384-22.656-9.384-17.695 0-32.040 14.345-32.040 32.040 0 8.848 3.586 16.858 9.384 22.656v0l169.408 169.344-169.408 169.344c-5.808 5.794-9.401 13.805-9.401 22.656s3.593 16.862 9.401 22.655l0.001 0.001zM384 448c0 17.673 14.327 32 32 32v0h416c17.673 0 32-14.327 32-32s-14.327-32-32-32v0h-416c-17.673 0-32 14.327-32 32v0zM224 64c-17.673 0-32 14.327-32 32v0 704c0 17.673 14.327 32 32 32s32-14.327 32-32v0-704c0-17.673-14.327-32-32-32v0z" />
<glyph unicode="&#xe90e;" glyph-name="arrow-bar-up" d="M726.656 585.344c5.808 5.794 9.401 13.805 9.401 22.656s-3.593 16.862-9.401 22.655l-192.001 192.001c-5.794 5.808-13.805 9.401-22.656 9.401s-16.862-3.593-22.655-9.401l-192.001-192.001c-5.798-5.798-9.384-13.808-9.384-22.656 0-17.695 14.345-32.040 32.040-32.040 8.848 0 16.858 3.586 22.656 9.384v0l169.344 169.408 169.344-169.408c5.794-5.808 13.805-9.401 22.656-9.401s16.862 3.593 22.655 9.401l0.001 0.001zM512 320c17.673 0 32 14.327 32 32v0 416c0 17.673-14.327 32-32 32s-32-14.327-32-32v0-416c0-17.673 14.327-32 32-32v0zM204.8 217.6c0 14.080 11.52 25.6 25.6 25.6h563.2c14.138 0 25.6-11.462 25.6-25.6s-11.462-25.6-25.6-25.6h-563.2c-14.138 0-25.6 11.462-25.6 25.6v0z" />
<glyph unicode="&#xe90f;" glyph-name="arrow-clockwise" d="M202.88 530.816c37.766 137.709 161.816 237.223 309.108 237.223 53.101 0 103.181-12.934 147.261-35.823l-1.778 0.84c4.226-2.196 9.226-3.484 14.528-3.484 17.689 0 32.028 14.34 32.028 32.028 0 12.387-7.032 23.132-17.322 28.46l-0.179 0.084c-50.751 26.444-110.83 41.955-174.532 41.955-212.077 0-384-171.923-384-384s171.923-384 384-384c212.077 0 384 171.923 384 384 0 57.987-12.853 112.971-35.865 162.261l0.99-2.36c-5.185 11.119-16.269 18.688-29.12 18.688-17.691 0-32.032-14.341-32.032-32.032 0-4.839 1.073-9.428 2.994-13.541l-0.083 0.197c18.373-39.127 29.095-84.972 29.095-133.321 0-176.731-143.269-320-320-320s-320 143.269-320 320c0 29.456 3.98 57.983 11.432 85.072l-0.527-2.247zM521.408 950.656c5.791 5.789 13.789 9.369 22.624 9.369s16.833-3.58 22.624-9.369l160-160c5.808-5.794 9.401-13.805 9.401-22.656s-3.593-16.862-9.401-22.655l-160.001-160.001c-5.792-5.785-13.79-9.362-22.624-9.362-17.683 0-32.018 14.335-32.018 32.018 0 8.849 3.59 16.86 9.393 22.656v0l137.344 137.344-137.344 137.344c-5.808 5.794-9.401 13.805-9.401 22.656s3.593 16.862 9.401 22.655l0.001 0.001z" />
<glyph unicode="&#xe910;" glyph-name="arrow-counterclockwise" d="M821.12 530.816c-37.766 137.709-161.816 237.223-309.108 237.223-53.101 0-103.181-12.934-147.261-35.823l1.778 0.84c-4.226-2.196-9.226-3.484-14.528-3.484-17.689 0-32.028 14.34-32.028 32.028 0 12.387 7.032 23.132 17.322 28.46l0.179 0.084c50.751 26.444 110.83 41.955 174.532 41.955 212.077 0 384-171.923 384-384s-171.923-384-384-384c-212.077 0-384 171.923-384 384 0 57.987 12.853 112.971 35.865 162.261l-0.99-2.36c5.185 11.12 16.269 18.688 29.12 18.688 17.691 0 32.032-14.341 32.032-32.032 0-4.839-1.073-9.428-2.994-13.541l0.083 0.197c-18.373-39.127-29.095-84.972-29.095-133.321 0-176.731 143.269-320 320-320s320 143.269 320 320c0 29.456-3.98 57.983-11.432 85.072l0.527-2.247zM502.656 950.656c-5.794 5.808-13.805 9.401-22.656 9.401s-16.862-3.593-22.655-9.401l-160.001-160.001c-5.808-5.794-9.401-13.805-9.401-22.656s3.593-16.862 9.401-22.655l160.001-160.001c5.798-5.798 13.808-9.384 22.656-9.384 17.695 0 32.040 14.345 32.040 32.040 0 8.848-3.586 16.858-9.384 22.656v0l-137.408 137.344 137.408 137.344c5.808 5.794 9.401 13.805 9.401 22.656s-3.593 16.862-9.401 22.655l-0.001 0.001z" />
<glyph unicode="&#xe911;" glyph-name="arrow-down-left" d="M192 480c17.673 0 32-14.327 32-32v0-288h288c17.673 0 32-14.327 32-32s-14.327-32-32-32v0h-320c-17.673 0-32 14.327-32 32v0 320c0 17.673 14.327 32 32 32v0zM790.656 726.656c5.808-5.794 9.401-13.805 9.401-22.656s-3.593-16.862-9.401-22.655l-576.001-576.001c-5.798-5.798-13.808-9.384-22.656-9.384-17.695 0-32.040 14.345-32.040 32.040 0 8.848 3.586 16.858 9.384 22.656v0l576 576c5.794 5.808 13.805 9.401 22.656 9.401s16.862-3.593 22.655-9.401l0.001-0.001z" />
<glyph unicode="&#xe912;" glyph-name="arrow-down-right" d="M768 480c17.673 0 32-14.327 32-32v0-320c0-17.673-14.327-32-32-32v0h-320c-17.673 0-32 14.327-32 32s14.327 32 32 32v0h288v288c0 17.673 14.327 32 32 32v0zM169.344 726.656c5.794 5.808 13.805 9.401 22.656 9.401s16.862-3.593 22.655-9.401l576.001-576.001c5.798-5.798 9.384-13.808 9.384-22.656 0-17.695-14.345-32.040-32.040-32.040-8.848 0-16.858 3.586-22.656 9.384v0l-576 576c-5.808 5.794-9.401 13.805-9.401 22.656s3.593 16.862 9.401 22.655l0.001 0.001z" />
<glyph unicode="&#xe913;" glyph-name="arrow-down-short" d="M297.344 470.656c5.794 5.808 13.805 9.401 22.656 9.401s16.862-3.593 22.655-9.401l169.345-169.409 169.344 169.408c5.798 5.798 13.808 9.384 22.656 9.384 17.695 0 32.040-14.345 32.040-32.040 0-8.848-3.586-16.858-9.384-22.656v0l-192-192c-5.794-5.808-13.805-9.401-22.656-9.401s-16.862 3.593-22.655 9.401l-192.001 192.001c-5.808 5.794-9.401 13.805-9.401 22.656s3.593 16.862 9.401 22.655l0.001 0.001zM512 672c17.673 0 32-14.327 32-32v0-320c0-17.673-14.327-32-32-32s-32 14.327-32 32v0 320c0 17.673 14.327 32 32 32v0z" />
<glyph unicode="&#xe914;" glyph-name="arrow-down" d="M297.344 342.656c5.794 5.808 13.805 9.401 22.656 9.401s16.862-3.593 22.655-9.401l169.345-169.409 169.344 169.408c5.798 5.798 13.808 9.384 22.656 9.384 17.695 0 32.040-14.345 32.040-32.040 0-8.848-3.586-16.858-9.384-22.656v0l-192-192c-5.794-5.808-13.805-9.401-22.656-9.401s-16.862 3.593-22.655 9.401l-192.001 192.001c-5.808 5.794-9.401 13.805-9.401 22.656s3.593 16.862 9.401 22.655l0.001 0.001zM512 800c17.673 0 32-14.327 32-32v0-576c0-17.673-14.327-32-32-32s-32 14.327-32 32v0 576c0 17.673 14.327 32 32 32v0z" />
<glyph unicode="&#xe915;" glyph-name="arrow-left-right" d="M649.344 470.656c5.794 5.808 13.805 9.401 22.656 9.401s16.862-3.593 22.655-9.401l192.001-192.001c5.808-5.794 9.401-13.805 9.401-22.656s-3.593-16.862-9.401-22.655l-192.001-192.001c-5.798-5.798-13.808-9.384-22.656-9.384-17.695 0-32.040 14.345-32.040 32.040 0 8.848 3.586 16.858 9.384 22.656v0l169.408 169.344-169.408 169.344c-5.808 5.794-9.401 13.805-9.401 22.656s3.593 16.862 9.401 22.655l0.001 0.001zM128 256c0 17.673 14.327 32 32 32v0h672c17.673 0 32-14.327 32-32s-14.327-32-32-32v0h-672c-17.673 0-32 14.327-32 32v0zM374.656 854.656c5.808-5.794 9.401-13.805 9.401-22.656s-3.593-16.862-9.401-22.655l-169.409-169.345 169.408-169.344c5.798-5.798 9.384-13.808 9.384-22.656 0-17.695-14.345-32.040-32.040-32.040-8.848 0-16.858 3.586-22.656 9.384l-192 192c-5.808 5.794-9.401 13.805-9.401 22.656s3.593 16.862 9.401 22.655l192.001 192.001c5.794 5.808 13.805 9.401 22.656 9.401s16.862-3.593 22.655-9.401l0.001-0.001zM160 640c0 17.673 14.327 32 32 32v0h672c17.673 0 32-14.327 32-32s-14.327-32-32-32v0h-672c-17.673 0-32 14.327-32 32v0z" />
<glyph unicode="&#xe916;" glyph-name="arrow-left-short" d="M502.656 662.656c5.808-5.794 9.401-13.805 9.401-22.656s-3.593-16.862-9.401-22.655l-169.409-169.345 169.408-169.344c5.798-5.798 9.384-13.808 9.384-22.656 0-17.695-14.345-32.040-32.040-32.040-8.848 0-16.858 3.586-22.656 9.384v0l-192 192c-5.808 5.794-9.401 13.805-9.401 22.656s3.593 16.862 9.401 22.655l192.001 192.001c5.794 5.808 13.805 9.401 22.656 9.401s16.862-3.593 22.655-9.401l0.001-0.001zM288 448c0 17.673 14.327 32 32 32v0h416c17.673 0 32-14.327 32-32s-14.327-32-32-32v0h-416c-17.673 0-32 14.327-32 32v0z" />
<glyph unicode="&#xe917;" glyph-name="arrow-left" d="M374.656 662.656c5.808-5.794 9.401-13.805 9.401-22.656s-3.593-16.862-9.401-22.655l-169.409-169.345 169.408-169.344c5.798-5.798 9.384-13.808 9.384-22.656 0-17.695-14.345-32.040-32.040-32.040-8.848 0-16.858 3.586-22.656 9.384v0l-192 192c-5.808 5.794-9.401 13.805-9.401 22.656s3.593 16.862 9.401 22.655l192.001 192.001c5.794 5.808 13.805 9.401 22.656 9.401s16.862-3.593 22.655-9.401l0.001-0.001zM160 448c0 17.673 14.327 32 32 32v0h672c17.673 0 32-14.327 32-32s-14.327-32-32-32v0h-672c-17.673 0-32 14.327-32 32v0z" />
<glyph unicode="&#xe918;" glyph-name="arrow-repeat" d="M182.656 502.656c-5.794 5.808-13.805 9.401-22.656 9.401s-16.862-3.593-22.655-9.401l-128.001-128.001c-5.798-5.798-9.384-13.808-9.384-22.656 0-17.695 14.345-32.040 32.040-32.040 8.848 0 16.858 3.586 22.656 9.384l105.344 105.408 105.344-105.408c5.798-5.798 13.808-9.384 22.656-9.384 17.695 0 32.040 14.345 32.040 32.040 0 8.848-3.586 16.858-9.384 22.656v0l-128 128zM1014.656 566.656c-5.794 5.808-13.805 9.401-22.656 9.401s-16.862-3.593-22.655-9.401l-105.345-105.409-105.344 105.408c-5.798 5.798-13.808 9.384-22.656 9.384-17.695 0-32.040-14.345-32.040-32.040 0-8.848 3.586-16.858 9.384-22.656v0l128-128c5.794-5.808 13.805-9.401 22.656-9.401s16.862 3.593 22.655 9.401l128.001 128.001c5.808 5.794 9.401 13.805 9.401 22.656s-3.593 16.862-9.401 22.655l-0.001 0.001zM512 768c-0.073 0-0.159 0-0.245 0-111.777 0-210.155-57.367-267.297-144.265l-0.745-1.207c-5.867-8.244-15.388-13.556-26.15-13.556-17.673 0-32 14.327-32 32 0 6.095 1.704 11.792 4.662 16.641l-0.080-0.141c69.551 105.729 187.665 174.561 321.856 174.561 212.077 0 384-171.923 384-384 0-0.012 0-0.023 0-0.035v0.002c0-17.691-14.341-32.032-32.032-32.032s-32.032 14.341-32.032 32.032v0c0 176.731-143.269 320-320 320v0zM160 480c17.673 0 32-14.327 32-32v0c0-0.033 0-0.072 0-0.11 0-176.731 143.269-320 320-320 111.874 0 210.339 57.409 267.542 144.375l0.746 1.207c5.698 9.351 15.84 15.5 27.418 15.5 17.673 0 32-14.327 32-32 0-6.911-2.191-13.311-5.916-18.542l0.066 0.098c-69.551-105.729-187.665-174.561-321.856-174.561-212.077 0-384 171.923-384 384 0 0.012 0 0.023 0 0.035v-0.002c0 0 0 0 0 0 0 17.673 14.327 32 32 32 0.023 0 0.045 0 0.067 0h-0.003z" />
<glyph unicode="&#xe919;" glyph-name="arrow-return-left" d="M374.656 598.656c5.808-5.794 9.401-13.805 9.401-22.656s-3.593-16.862-9.401-22.655l-169.409-169.345 169.408-169.344c5.798-5.798 9.384-13.808 9.384-22.656 0-17.695-14.345-32.040-32.040-32.040-8.848 0-16.858 3.586-22.656 9.384v0l-192 192c-5.808 5.794-9.401 13.805-9.401 22.656s3.593 16.862 9.401 22.655l192.001 192.001c5.794 5.808 13.805 9.401 22.656 9.401s16.862-3.593 22.655-9.401l0.001-0.001zM864 800c17.673 0 32-14.327 32-32v0-256c0-88.366-71.634-160-160-160v0h-544c-17.673 0-32 14.327-32 32s14.327 32 32 32v0h544c53.019 0 96 42.981 96 96v0 256c0 17.673 14.327 32 32 32v0z" />
<glyph unicode="&#xe91a;" glyph-name="arrow-return-right" d="M649.344 598.656c5.794 5.808 13.805 9.401 22.656 9.401s16.862-3.593 22.655-9.401l192.001-192.001c5.808-5.794 9.401-13.805 9.401-22.656s-3.593-16.862-9.401-22.655l-192.001-192.001c-5.798-5.798-13.808-9.384-22.656-9.384-17.695 0-32.040 14.345-32.040 32.040 0 8.848 3.586 16.858 9.384 22.656v0l169.408 169.344-169.408 169.344c-5.808 5.794-9.401 13.805-9.401 22.656s3.593 16.862 9.401 22.655l0.001 0.001zM192 800c-17.673 0-32-14.327-32-32v0-256c0-88.366 71.634-160 160-160v0h544c17.673 0 32 14.327 32 32s-14.327 32-32 32v0h-544c-53.019 0-96 42.981-96 96v0 256c0 17.673-14.327 32-32 32v0z" />
<glyph unicode="&#xe91b;" glyph-name="arrow-right-short" d="M521.344 662.656c5.794 5.808 13.805 9.401 22.656 9.401s16.862-3.593 22.655-9.401l192.001-192.001c5.808-5.794 9.401-13.805 9.401-22.656s-3.593-16.862-9.401-22.655l-192.001-192.001c-5.798-5.798-13.808-9.384-22.656-9.384-17.695 0-32.040 14.345-32.040 32.040 0 8.848 3.586 16.858 9.384 22.656v0l169.408 169.344-169.408 169.344c-5.808 5.794-9.401 13.805-9.401 22.656s3.593 16.862 9.401 22.655l0.001 0.001zM256 448c0 17.673 14.327 32 32 32v0h416c17.673 0 32-14.327 32-32s-14.327-32-32-32v0h-416c-17.673 0-32 14.327-32 32v0z" />
<glyph unicode="&#xe91c;" glyph-name="arrow-right" d="M649.344 662.656c5.794 5.808 13.805 9.401 22.656 9.401s16.862-3.593 22.655-9.401l192.001-192.001c5.808-5.794 9.401-13.805 9.401-22.656s-3.593-16.862-9.401-22.655l-192.001-192.001c-5.798-5.798-13.808-9.384-22.656-9.384-17.695 0-32.040 14.345-32.040 32.040 0 8.848 3.586 16.858 9.384 22.656v0l169.408 169.344-169.408 169.344c-5.808 5.794-9.401 13.805-9.401 22.656s3.593 16.862 9.401 22.655l0.001 0.001zM128 448c0 17.673 14.327 32 32 32v0h672c17.673 0 32-14.327 32-32s-14.327-32-32-32v0h-672c-17.673 0-32 14.327-32 32v0z" />
<glyph unicode="&#xe91d;" glyph-name="arrow-up-down" d="M704 736c17.673 0 32-14.327 32-32v0-576c0-17.673-14.327-32-32-32s-32 14.327-32 32v0 576c0 17.673 14.327 32 32 32v0zM681.344 790.656c5.794 5.808 13.805 9.401 22.656 9.401s16.862-3.593 22.655-9.401l192.001-192.001c5.798-5.798 9.384-13.808 9.384-22.656 0-17.695-14.345-32.040-32.040-32.040-8.848 0-16.858 3.586-22.656 9.384v0l-169.344 169.408-169.344-169.408c-5.798-5.798-13.808-9.384-22.656-9.384-17.695 0-32.040 14.345-32.040 32.040 0 8.848 3.586 16.858 9.384 22.656v0l192 192zM105.344 342.656c5.794 5.808 13.805 9.401 22.656 9.401s16.862-3.593 22.655-9.401l169.345-169.409 169.344 169.408c5.798 5.798 13.808 9.384 22.656 9.384 17.695 0 32.040-14.345 32.040-32.040 0-8.848-3.586-16.858-9.384-22.656l-192-192c-5.794-5.808-13.805-9.401-22.656-9.401s-16.862 3.593-22.655 9.401l-192.001 192.001c-5.808 5.794-9.401 13.805-9.401 22.656s3.593 16.862 9.401 22.655l0.001 0.001zM320 800c17.673 0 32-14.327 32-32v0-576c0-17.673-14.327-32-32-32s-32 14.327-32 32v0 576c0 17.673 14.327 32 32 32v0z" />
<glyph unicode="&#xe91e;" glyph-name="arrow-up-left" d="M160 704c0 17.673 14.327 32 32 32v0h320c17.673 0 32-14.327 32-32s-14.327-32-32-32v0h-288v-288c0-17.673-14.327-32-32-32s-32 14.327-32 32v0 320zM169.344 726.656c5.794 5.808 13.805 9.401 22.656 9.401s16.862-3.593 22.655-9.401l576.001-576.001c5.798-5.798 9.384-13.808 9.384-22.656 0-17.695-14.345-32.040-32.040-32.040-8.848 0-16.858 3.586-22.656 9.384v0l-576 576c-5.808 5.794-9.401 13.805-9.401 22.656s3.593 16.862 9.401 22.655l0.001 0.001z" />
<glyph unicode="&#xe91f;" glyph-name="arrow-up-right" d="M416 704c0 17.673 14.327 32 32 32v0h320c17.673 0 32-14.327 32-32v0-320c0-17.673-14.327-32-32-32s-32 14.327-32 32v0 288h-288c-17.673 0-32 14.327-32 32v0zM790.656 726.656c5.808-5.794 9.401-13.805 9.401-22.656s-3.593-16.862-9.401-22.655l-576.001-576.001c-5.798-5.798-13.808-9.384-22.656-9.384-17.695 0-32.040 14.345-32.040 32.040 0 8.848 3.586 16.858 9.384 22.656v0l576 576c5.794 5.808 13.805 9.401 22.656 9.401s16.862-3.593 22.655-9.401l0.001-0.001z" />
<glyph unicode="&#xe920;" glyph-name="arrow-up-short" d="M512 608c17.673 0 32-14.327 32-32v0-320c0-17.673-14.327-32-32-32s-32 14.327-32 32v0 320c0 17.673 14.327 32 32 32v0zM489.344 662.656c5.794 5.808 13.805 9.401 22.656 9.401s16.862-3.593 22.655-9.401l192.001-192.001c5.798-5.798 9.384-13.808 9.384-22.656 0-17.695-14.345-32.040-32.040-32.040-8.848 0-16.858 3.586-22.656 9.384l-169.344 169.408-169.344-169.408c-5.798-5.798-13.808-9.384-22.656-9.384-17.695 0-32.040 14.345-32.040 32.040 0 8.848 3.586 16.858 9.384 22.656v0l192 192z" />
<glyph unicode="&#xe921;" glyph-name="arrow-up" d="M512 736c17.673 0 32-14.327 32-32v0-576c0-17.673-14.327-32-32-32s-32 14.327-32 32v0 576c0 17.673 14.327 32 32 32v0zM489.344 790.656c5.794 5.808 13.805 9.401 22.656 9.401s16.862-3.593 22.655-9.401l192.001-192.001c5.798-5.798 9.384-13.808 9.384-22.656 0-17.695-14.345-32.040-32.040-32.040-8.848 0-16.858 3.586-22.656 9.384v0l-169.344 169.408-169.344-169.408c-5.798-5.798-13.808-9.384-22.656-9.384-17.695 0-32.040 14.345-32.040 32.040 0 8.848 3.586 16.858 9.384 22.656v0l192 192z" />
<glyph unicode="&#xe922;" glyph-name="arrows-angle-contract" d="M608 829.696c17.673 0 32-14.327 32-32v0-224h224c17.673 0 32-14.327 32-32s-14.327-32-32-32v0h-256c-17.673 0-32 14.327-32 32v0 256c0 17.673 14.327 32 32 32v0zM918.656 854.656c5.808-5.794 9.401-13.805 9.401-22.656s-3.593-16.862-9.401-22.655l-288.001-288.001c-5.798-5.798-13.808-9.384-22.656-9.384-17.695 0-32.040 14.345-32.040 32.040 0 8.848 3.586 16.858 9.384 22.656v0l288 288c5.794 5.808 13.805 9.401 22.656 9.401s16.862-3.593 22.655-9.401l0.001-0.001zM438.656 374.656c5.808-5.794 9.401-13.805 9.401-22.656s-3.593-16.862-9.401-22.655l-288.001-288.001c-5.798-5.798-13.808-9.384-22.656-9.384-17.695 0-32.040 14.345-32.040 32.040 0 8.848 3.586 16.858 9.384 22.656l288 288c5.794 5.808 13.805 9.401 22.656 9.401s16.862-3.593 22.655-9.401l0.001-0.001zM130.304 352c0 17.673 14.327 32 32 32v0h256c17.673 0 32-14.327 32-32v0-256c0-17.673-14.327-32-32-32s-32 14.327-32 32v0 224h-224c-17.673 0-32 14.327-32 32v0z" />
<glyph unicode="&#xe923;" glyph-name="arrows-angle-expand" d="M96 317.696c17.673 0 32-14.327 32-32v0-224h224c17.673 0 32-14.327 32-32s-14.327-32-32-32v0h-256c-17.673 0-32 14.327-32 32v0 256c0 17.673 14.327 32 32 32v0zM406.656 342.656c5.808-5.794 9.401-13.805 9.401-22.656s-3.593-16.862-9.401-22.655l-288.001-288.001c-5.798-5.798-13.808-9.384-22.656-9.384-17.695 0-32.040 14.345-32.040 32.040 0 8.848 3.586 16.858 9.384 22.656l288 288c5.794 5.808 13.805 9.401 22.656 9.401s16.862-3.593 22.655-9.401l0.001-0.001zM950.656 886.656c5.808-5.794 9.401-13.805 9.401-22.656s-3.593-16.862-9.401-22.655l-288.001-288.001c-5.798-5.798-13.808-9.384-22.656-9.384-17.695 0-32.040 14.345-32.040 32.040 0 8.848 3.586 16.858 9.384 22.656v0l288 288c5.794 5.808 13.805 9.401 22.656 9.401s16.862-3.593 22.655-9.401l0.001-0.001zM642.304 864c0 17.673 14.327 32 32 32v0h256c17.673 0 32-14.327 32-32v0-256c0-17.673-14.327-32-32-32s-32 14.327-32 32v0 224h-224c-17.673 0-32 14.327-32 32v0z" />
<glyph unicode="&#xe924;" glyph-name="arrows-collapse" d="M128 448c0 17.673 14.327 32 32 32v0h704c17.673 0 32-14.327 32-32s-14.327-32-32-32v0h-704c-17.673 0-32 14.327-32 32v0zM512 896c17.673 0 32-14.327 32-32v0-288c0-17.673-14.327-32-32-32s-32 14.327-32 32v0 288c0 17.673 14.327 32 32 32v0zM662.656 726.656c5.808-5.794 9.401-13.805 9.401-22.656s-3.593-16.862-9.401-22.655l-128.001-128.001c-5.794-5.808-13.805-9.401-22.656-9.401s-16.862 3.593-22.655 9.401l-128.001 128.001c-5.798 5.798-9.384 13.808-9.384 22.656 0 17.695 14.345 32.040 32.040 32.040 8.848 0 16.858-3.586 22.656-9.384v0l105.344-105.408 105.344 105.408c5.794 5.808 13.805 9.401 22.656 9.401s16.862-3.593 22.655-9.401l0.001-0.001zM512 0c17.673 0 32 14.327 32 32v0 288c0 17.673-14.327 32-32 32s-32-14.327-32-32v0-288c0-17.673 14.327-32 32-32v0zM662.656 169.344c5.808 5.794 9.401 13.805 9.401 22.656s-3.593 16.862-9.401 22.655l-128.001 128.001c-5.794 5.808-13.805 9.401-22.656 9.401s-16.862-3.593-22.655-9.401l-128.001-128.001c-5.798-5.798-9.384-13.808-9.384-22.656 0-17.695 14.345-32.040 32.040-32.040 8.848 0 16.858 3.586 22.656 9.384v0l105.344 105.408 105.344-105.408c5.794-5.808 13.805-9.401 22.656-9.401s16.862 3.593 22.655 9.401l0.001 0.001z" />
<glyph unicode="&#xe925;" glyph-name="arrows-expand" d="M128 448c0 17.673 14.327 32 32 32v0h704c17.673 0 32-14.327 32-32s-14.327-32-32-32v0h-704c-17.673 0-32 14.327-32 32v0zM512 544c17.673 0 32 14.327 32 32v0 288c0 17.673-14.327 32-32 32s-32-14.327-32-32v0-288c0-17.673 14.327-32 32-32v0zM662.656 713.344c5.808 5.794 9.401 13.805 9.401 22.656s-3.593 16.862-9.401 22.655l-128.001 128.001c-5.794 5.808-13.805 9.401-22.656 9.401s-16.862-3.593-22.655-9.401l-128.001-128.001c-5.798-5.798-9.384-13.808-9.384-22.656 0-17.695 14.345-32.040 32.040-32.040 8.848 0 16.858 3.586 22.656 9.384v0l105.344 105.408 105.344-105.408c5.794-5.808 13.805-9.401 22.656-9.401s16.862 3.593 22.655 9.401l0.001 0.001zM512 352c17.673 0 32-14.327 32-32v0-288c0-17.673-14.327-32-32-32s-32 14.327-32 32v0 288c0 17.673 14.327 32 32 32v0zM662.656 182.656c5.808-5.794 9.401-13.805 9.401-22.656s-3.593-16.862-9.401-22.655l-128.001-128.001c-5.794-5.808-13.805-9.401-22.656-9.401s-16.862 3.593-22.655 9.401l-128.001 128.001c-5.798 5.798-9.384 13.808-9.384 22.656 0 17.695 14.345 32.040 32.040 32.040 8.848 0 16.858-3.586 22.656-9.384v0l105.344-105.408 105.344 105.408c5.794 5.808 13.805 9.401 22.656 9.401s16.862-3.593 22.655-9.401l0.001-0.001z" />
<glyph unicode="&#xe926;" glyph-name="arrows-fullscreen" d="M93.696 285.696c17.673 0 32-14.327 32-32v0-192h192c17.673 0 32-14.327 32-32s-14.327-32-32-32v0h-224c-17.673 0-32 14.327-32 32v0 224c0 17.673 14.327 32 32 32v0zM381.696 320c5.789-5.791 9.369-13.789 9.369-22.624s-3.58-16.833-9.369-22.624l-265.344-265.408c-5.792-5.785-13.79-9.362-22.624-9.362-17.683 0-32.018 14.335-32.018 32.018 0 8.849 3.59 16.86 9.393 22.656v0l265.344 265.344c5.791 5.789 13.789 9.369 22.624 9.369s16.833-3.58 22.624-9.369v0zM948.352 886.656c5.808-5.794 9.401-13.805 9.401-22.656s-3.593-16.862-9.401-22.655l-265.345-265.345c-5.796-5.804-13.807-9.394-22.656-9.394-17.683 0-32.018 14.335-32.018 32.018 0 8.834 3.577 16.832 9.362 22.624v0l265.408 265.408c5.791 5.789 13.789 9.369 22.624 9.369s16.833-3.58 22.624-9.369v0zM672 864c0 17.673 14.327 32 32 32v0h224c17.673 0 32-14.327 32-32v0-224c0-17.673-14.327-32-32-32s-32 14.327-32 32v0 192h-192c-17.673 0-32 14.327-32 32v0zM928 288c-17.673 0-32-14.327-32-32v0-192h-192c-17.673 0-32-14.327-32-32s14.327-32 32-32v0h224c17.673 0 32 14.327 32 32v0 224c0 17.673-14.327 32-32 32v0zM640 322.304c-5.808-5.794-9.401-13.805-9.401-22.656s3.593-16.862 9.401-22.655l265.345-265.345c5.796-5.804 13.807-9.394 22.656-9.394 17.683 0 32.018 14.335 32.018 32.018 0 8.834-3.577 16.832-9.362 22.624v0l-265.408 265.408c-5.791 5.789-13.789 9.369-22.624 9.369s-16.833-3.58-22.624-9.369v0zM75.648 886.656c-5.808-5.794-9.401-13.805-9.401-22.656s3.593-16.862 9.401-22.655l265.345-265.345c5.796-5.804 13.807-9.394 22.656-9.394 17.683 0 32.018 14.335 32.018 32.018 0 8.834-3.577 16.832-9.362 22.624v0l-265.408 265.408c-5.791 5.789-13.789 9.369-22.624 9.369s-16.833-3.58-22.624-9.369v0zM352 864c0 17.673-14.327 32-32 32v0h-224c-17.673 0-32-14.327-32-32v0-224c0-17.673 14.327-32 32-32s32 14.327 32 32v0 192h192c17.673 0 32 14.327 32 32v0z" />
<glyph unicode="&#xe927;" glyph-name="arrows-move" d="M416 448c0 17.673-14.327 32-32 32v0h-288c-17.673 0-32-14.327-32-32s14.327-32 32-32v0h288c17.673 0 32 14.327 32 32v0zM246.656 598.656c-5.794 5.808-13.805 9.401-22.656 9.401s-16.862-3.593-22.655-9.401l-128.001-128.001c-5.808-5.794-9.401-13.805-9.401-22.656s3.593-16.862 9.401-22.655l128.001-128.001c5.798-5.798 13.808-9.384 22.656-9.384 17.695 0 32.040 14.345 32.040 32.040 0 8.848-3.586 16.858-9.384 22.656v0l-105.408 105.344 105.408 105.344c5.808 5.794 9.401 13.805 9.401 22.656s-3.593 16.862-9.401 22.655l-0.001 0.001zM608 448c0 17.673 14.327 32 32 32v0h288c17.673 0 32-14.327 32-32s-14.327-32-32-32v0h-288c-17.673 0-32 14.327-32 32v0zM777.344 598.656c5.794 5.808 13.805 9.401 22.656 9.401s16.862-3.593 22.655-9.401l128.001-128.001c5.808-5.794 9.401-13.805 9.401-22.656s-3.593-16.862-9.401-22.655l-128.001-128.001c-5.798-5.798-13.808-9.384-22.656-9.384-17.695 0-32.040 14.345-32.040 32.040 0 8.848 3.586 16.858 9.384 22.656v0l105.408 105.344-105.408 105.344c-5.808 5.794-9.401 13.805-9.401 22.656s3.593 16.862 9.401 22.655l0.001 0.001zM512 352c-17.673 0-32-14.327-32-32v0-288c0-17.673 14.327-32 32-32s32 14.327 32 32v0 288c0 17.673-14.327 32-32 32v0zM361.344 182.656c-5.808-5.794-9.401-13.805-9.401-22.656s3.593-16.862 9.401-22.655l128.001-128.001c5.794-5.808 13.805-9.401 22.656-9.401s16.862 3.593 22.655 9.401l128.001 128.001c5.798 5.798 9.384 13.808 9.384 22.656 0 17.695-14.345 32.040-32.040 32.040-8.848 0-16.858-3.586-22.656-9.384v0l-105.344-105.408-105.344 105.408c-5.794 5.808-13.805 9.401-22.656 9.401s-16.862-3.593-22.655-9.401l-0.001-0.001zM512 544c-17.673 0-32 14.327-32 32v0 288c0 17.673 14.327 32 32 32s32-14.327 32-32v0-288c0-17.673-14.327-32-32-32v0zM361.344 713.344c-5.808 5.794-9.401 13.805-9.401 22.656s3.593 16.862 9.401 22.655l128.001 128.001c5.794 5.808 13.805 9.401 22.656 9.401s16.862-3.593 22.655-9.401l128.001-128.001c5.798-5.798 9.384-13.808 9.384-22.656 0-17.695-14.345-32.040-32.040-32.040-8.848 0-16.858 3.586-22.656 9.384v0l-105.344 105.408-105.344-105.408c-5.794-5.808-13.805-9.401-22.656-9.401s-16.862 3.593-22.655 9.401l-0.001 0.001z" />
<glyph unicode="&#xe928;" glyph-name="aspect-ratio-fill" d="M96 832h832c53.019 0 96-42.981 96-96v-576c0-53.019-42.981-96-96-96h-832c-53.019 0-96 42.981-96 96v576c0 53.019 42.981 96 96 96zM160 704c-17.673 0-32-14.327-32-32v0-192c0-17.673 14.327-32 32-32s32 14.327 32 32v0 160h160c17.673 0 32 14.327 32 32s-14.327 32-32 32v0h-192zM864 192c17.673 0 32 14.327 32 32v0 192c0 17.673-14.327 32-32 32s-32-14.327-32-32v0-160h-160c-17.673 0-32-14.327-32-32s14.327-32 32-32v0h192z" />
<glyph unicode="&#xe929;" glyph-name="aspect-ratio" d="M0 736c0 53.019 42.981 96 96 96v0h832c53.019 0 96-42.981 96-96v0-576c0-53.019-42.981-96-96-96v0h-832c-53.019 0-96 42.981-96 96v0 576zM96 768c-17.673 0-32-14.327-32-32v0-576c0-17.673 14.327-32 32-32v0h832c17.673 0 32 14.327 32 32v0 576c0 17.673-14.327 32-32 32v0h-832zM128 672c0 17.673 14.327 32 32 32v0h192c17.673 0 32-14.327 32-32s-14.327-32-32-32v0h-160v-160c0-17.673-14.327-32-32-32s-32 14.327-32 32v0 192zM896 224c0-17.673-14.327-32-32-32v0h-192c-17.673 0-32 14.327-32 32s14.327 32 32 32v0h160v160c0 17.673 14.327 32 32 32s32-14.327 32-32v0-192z" />
<glyph unicode="&#xe92a;" glyph-name="at" d="M838.784 497.792c0 189.888-143.936 322.048-350.848 322.048-214.4 0-361.344-148.352-361.344-364.928 0-223.552 143.040-365.312 368.768-365.312 55.168 0 108.096 7.872 147.456 21.44v55.168c-27.52-12.736-86.656-20.992-146.56-20.992-187.264 0-308.032 120.32-308.032 307.072 0 182.016 122.944 312.384 294.016 312.384 175.040 0 294.912-108.032 294.912-265.984 0-107.648-35.456-177.216-90.624-177.216-31.488 0-49.408 17.92-49.408 48.64v256.704h-66.048v-53.376h-7.040c-17.024 38.080-56.384 61.696-102.4 61.696-89.6 0-152.192-74.368-152.192-180.672 0-111.168 61.248-185.984 152.256-185.984 51.2 0 90.56 24.96 109.376 69.568h7.040c5.184-42.88 44.992-73.472 96.192-73.472 100.608 0 164.48 90.56 164.48 233.152zM379.456 452.736c0 76.608 34.56 122.048 93.184 122.048 59.52 0 97.536-47.232 97.536-122.048s-38.464-122.496-98.432-122.496c-57.28 0-92.288 46.4-92.288 122.496z" />
<glyph unicode="&#xe92b;" glyph-name="award-fill" d="M512 960l106.816-55.296 118.912-18.048 53.888-107.52 85.568-84.48-19.584-118.656 19.584-118.656-85.568-84.48-53.888-107.52-118.912-18.048-106.816-55.296-106.816 55.296-118.912 18.048-53.888 107.52-85.568 84.48 19.584 118.656-19.584 118.656 85.568 84.48 53.888 107.52 118.912 18.048 106.816 55.296zM256 205.184v-269.184l256 64 256-64v269.184l-129.152-19.584-126.848-65.664-126.848 65.664-129.152 19.584z" />
<glyph unicode="&#xe92c;" glyph-name="award" d="M618.816 904.704l118.912-18.048 53.888-107.52 85.568-84.48-19.584-118.656 19.584-118.656-85.568-84.48-53.888-107.52-118.912-18.048-106.816-55.296-106.816 55.296-118.912 18.048-53.888 107.52-85.568 84.48 19.584 118.656-19.584 118.656 85.568 84.48 53.888 107.52 118.912 18.048 106.816 55.296 106.816-55.296zM695.36 828.352l-96.64 14.656-86.72 44.928-86.72-44.928-96.64-14.656-43.776-87.36-69.504-68.608 15.936-96.384-16-96.384 69.568-68.608 43.776-87.36 96.64-14.656 86.72-44.928 86.784 44.928 96.576 14.656 43.776 87.36 69.504 68.608-15.872 96.384 15.872 96.384-69.504 68.608-43.776 87.36zM256 205.184v-269.184l256 64 256-64v269.184l-129.152-19.584-126.848-65.664-126.848 65.664-129.152 19.584z" />
<glyph unicode="&#xe92d;" glyph-name="backspace-fill" d="M1003.712 768c0 70.692-57.308 128-128 128v0h-453.12c-0.016 0-0.035 0-0.054 0-38.789 0-73.548-17.254-97.021-44.505l-0.14-0.167-309.952-361.728c-9.583-11.124-15.419-25.712-15.419-41.664s5.836-30.541 15.489-41.748l-0.070 0.084 309.952-361.6c23.614-27.418 58.373-44.672 97.162-44.672 0.019 0 0.038 0 0.057 0h453.117c70.692 0 128 57.308 128 128v0 640zM373.056 585.344c-5.804 5.796-9.394 13.807-9.394 22.656 0 17.683 14.335 32.018 32.018 32.018 8.834 0 16.832-3.577 22.624-9.362v0l137.408-137.408 137.344 137.408c5.792 5.785 13.79 9.362 22.624 9.362 17.683 0 32.018-14.335 32.018-32.018 0-8.849-3.59-16.86-9.393-22.656v0l-137.344-137.344 137.344-137.344c5.804-5.796 9.394-13.807 9.394-22.656 0-17.683-14.335-32.018-32.018-32.018-8.834 0-16.832 3.577-22.624 9.362v0l-137.344 137.408-137.408-137.408c-5.792-5.785-13.79-9.362-22.624-9.362-17.683 0-32.018 14.335-32.018 32.018 0 8.849 3.59 16.86 9.393 22.656v0l137.408 137.344-137.408 137.344z" />
<glyph unicode="&#xe92e;" glyph-name="backspace-reverse-fill" d="M0 768c0 70.692 57.308 128 128 128v0h453.12c0.016 0 0.035 0 0.054 0 38.789 0 73.548-17.254 97.021-44.505l0.14-0.167 309.952-361.664c9.583-11.124 15.419-25.712 15.419-41.664s-5.836-30.541-15.489-41.748l0.070 0.084-309.888-361.536c-23.617-27.494-58.423-44.8-97.272-44.8-0.003 0-0.006 0-0.009 0h-453.119c-70.692 0-128 57.308-128 128v0 640zM630.656 585.344c5.798 5.798 9.384 13.808 9.384 22.656 0 17.695-14.345 32.040-32.040 32.040-8.848 0-16.858-3.586-22.656-9.384v0l-137.344-137.408-137.344 137.408c-5.798 5.798-13.808 9.384-22.656 9.384-17.695 0-32.040-14.345-32.040-32.040 0-8.848 3.586-16.858 9.384-22.656v0l137.408-137.344-137.408-137.344c-5.798-5.798-9.384-13.808-9.384-22.656 0-17.695 14.345-32.040 32.040-32.040 8.848 0 16.858 3.586 22.656 9.384v0l137.344 137.408 137.344-137.408c5.798-5.798 13.808-9.384 22.656-9.384 17.695 0 32.040 14.345 32.040 32.040 0 8.848-3.586 16.858-9.384 22.656v0l-137.408 137.344 137.408 137.344z" />
<glyph unicode="&#xe92f;" glyph-name="backspace-reverse" d="M581.12 832h0.003c19.399-0.019 36.777-8.668 48.573-22.4l309.952-361.6-309.959-361.685c-11.737-13.662-29.14-22.315-48.564-22.315-0.001 0-0.003 0-0.004 0h-453.12c-35.346 0-64 28.654-64 64v640c0 35.346 28.654 64 64 64h453.12zM128 896c-70.692 0-128-57.308-128-128v0-640c0-70.692 57.308-128 128-128v0h453.12c0.016 0 0.035 0 0.054 0 38.789 0 73.548 17.254 97.021 44.505l0.14 0.167 309.952 361.664c9.583 11.124 15.419 25.712 15.419 41.664s-5.836 30.541-15.489 41.748l0.070-0.084-309.888 361.536c-23.617 27.494-58.423 44.8-97.272 44.8-0.003 0-0.006 0-0.009 0h-453.119zM630.656 630.656c5.808-5.794 9.401-13.805 9.401-22.656s-3.593-16.862-9.401-22.655l-320.001-320.001c-5.798-5.798-13.808-9.384-22.656-9.384-17.695 0-32.040 14.345-32.040 32.040 0 8.848 3.586 16.858 9.384 22.656v0l320 320c5.794 5.808 13.805 9.401 22.656 9.401s16.862-3.593 22.655-9.401l0.001-0.001zM265.344 630.656c-5.808-5.794-9.401-13.805-9.401-22.656s3.593-16.862 9.401-22.655l320.001-320.001c5.798-5.798 13.808-9.384 22.656-9.384 17.695 0 32.040 14.345 32.040 32.040 0 8.848-3.586 16.858-9.384 22.656v0l-320 320c-5.794 5.808-13.805 9.401-22.656 9.401s-16.862-3.593-22.655-9.401l-0.001-0.001z" />
<glyph unicode="&#xe930;" glyph-name="backspace" d="M422.592 832h-0.003c-19.399-0.019-36.777-8.668-48.573-22.4l-310.016-361.6 310.023-361.685c11.737-13.662 29.14-22.315 48.564-22.315 0.001 0 0.003 0 0.004 0h453.12c35.346 0 64 28.654 64 64v640c0 35.346-28.654 64-64 64h-453.12zM875.712 896c70.692 0 128-57.308 128-128v0-640c0-70.692-57.308-128-128-128v0h-453.12c-0.016 0-0.035 0-0.054 0-38.789 0-73.548 17.254-97.021 44.505l-0.14 0.167-309.952 361.728c-9.583 11.124-15.419 25.712-15.419 41.664s5.836 30.541 15.489 41.748l-0.070-0.084 309.952 361.472c23.606 27.48 58.388 44.783 97.213 44.8h453.123zM373.12 630.656c-5.808-5.794-9.401-13.805-9.401-22.656s3.593-16.862 9.401-22.655l320.001-320.001c5.792-5.785 13.79-9.362 22.624-9.362 17.683 0 32.018 14.335 32.018 32.018 0 8.849-3.59 16.86-9.393 22.656v0l-320 320c-5.794 5.808-13.805 9.401-22.656 9.401s-16.862-3.593-22.655-9.401l-0.001-0.001zM738.368 630.656c5.808-5.794 9.401-13.805 9.401-22.656s-3.593-16.862-9.401-22.655l-320.001-320.001c-5.798-5.798-13.808-9.384-22.656-9.384-17.695 0-32.040 14.345-32.040 32.040 0 8.848 3.586 16.858 9.384 22.656v0l320 320c5.791 5.789 13.789 9.369 22.624 9.369s16.833-3.58 22.624-9.369v0z" />
<glyph unicode="&#xe931;" glyph-name="bag-fill" d="M64 704h896v-640c0-70.692-57.308-128-128-128v0h-640c-70.692 0-128 57.308-128 128v0 640zM512 864c-88.366 0-160-71.634-160-160v0h-64c0 123.712 100.288 224 224 224s224-100.288 224-224v0h-64c0 88.366-71.634 160-160 160v0z" />
<glyph unicode="&#xe932;" glyph-name="bag" d="M896 640v-576c0-35.346-28.654-64-64-64h-640c-35.346 0-64 28.654-64 64v576h768zM64 704v-640c0-70.692 57.308-128 128-128v0h640c70.692 0 128 57.308 128 128v0 640h-896zM512 864c-88.366 0-160-71.634-160-160v0h-64c0 123.712 100.288 224 224 224s224-100.288 224-224v0h-64c0 88.366-71.634 160-160 160v0z" />
<glyph unicode="&#xe933;" glyph-name="bar-chart-fill" d="M128 320h128c35.346 0 64-28.654 64-64v-192c0-35.346-28.654-64-64-64h-128c-35.346 0-64 28.654-64 64v192c0 35.346 28.654 64 64 64zM448 576h128c35.346 0 64-28.654 64-64v-448c0-35.346-28.654-64-64-64h-128c-35.346 0-64 28.654-64 64v448c0 35.346 28.654 64 64 64zM768 896h128c35.346 0 64-28.654 64-64v-768c0-35.346-28.654-64-64-64h-128c-35.346 0-64 28.654-64 64v768c0 35.346 28.654 64 64 64z" />
<glyph unicode="&#xe934;" glyph-name="bar-chart" d="M256 256h-128v-192h128v192zM576 512h-128v-448h128v448zM896 832v-768h-128v768h128zM768 896c-35.346 0-64-28.654-64-64v0-768c0-35.346 28.654-64 64-64v0h128c35.346 0 64 28.654 64 64v0 768c0 35.346-28.654 64-64 64v0h-128zM384 512c0 35.346 28.654 64 64 64v0h128c35.346 0 64-28.654 64-64v0-448c0-35.346-28.654-64-64-64v0h-128c-35.346 0-64 28.654-64 64v0 448zM64 256c0 35.346 28.654 64 64 64v0h128c35.346 0 64-28.654 64-64v0-192c0-35.346-28.654-64-64-64v0h-128c-35.346 0-64 28.654-64 64v0 192z" />
<glyph unicode="&#xe935;" glyph-name="battery-charging" d="M928 352c53.019 0 96 42.981 96 96s-42.981 96-96 96v0-192zM613.44 795.648c9.574-5.649 15.896-15.913 15.896-27.653 0-3.379-0.524-6.636-1.495-9.694l0.062 0.227-72.576-235.776h127.36c0.004 0 0.008 0 0.013 0 17.673 0 32-14.327 32-32 0-8.506-3.318-16.236-8.731-21.967l0.014 0.015-341.376-362.688c-5.851-6.211-14.129-10.078-23.311-10.078-17.673 0-32 14.327-32 32 0 3.368 0.52 6.615 1.485 9.665l-0.062-0.227 72.64 235.84h-127.36c-0.004 0-0.008 0-0.013 0-17.673 0-32 14.327-32 32 0 8.506 3.318 16.236 8.731 21.967l-0.014-0.015 341.312 362.688c5.852 6.224 14.14 10.1 23.332 10.1 5.928 0 11.48-1.612 16.241-4.422l-0.149 0.081zM405.248 704h-277.248c-70.692 0-128-57.308-128-128v0-256c0-70.692 57.308-128 128-128v0h132.608l19.648 64h-152.256c-35.346 0-64 28.654-64 64v0 256c0 35.346 28.654 64 64 64v0h217.024l60.224 64zM284.8 576h-156.8v-256h84.032c-31.126 16.301-52 48.374-52 85.323 0 25.481 9.927 48.642 26.125 65.829l-0.045-0.048 98.688 104.896zM347.264 256l-19.712-64h117.888l13.44 14.336h0.064l46.72 49.664h-87.744l-5.44-5.76 1.792 5.76h-67.008zM433.92 320h-67.008l16.448 53.312h-127.36c-0.004 0-0.008 0-0.013 0-17.673 0-32 14.327-32 32 0 8.506 3.318 16.236 8.731 21.967l-0.014-0.015 139.968 148.736h87.872l-130.496-138.688h96.64c0.002 0 0.004 0 0.006 0 17.673 0 32-14.327 32-32 0-3.357-0.517-6.594-1.476-9.635l0.062 0.227-23.36-75.904zM478.080 320h87.936l139.968 148.736c5.398 5.716 8.717 13.446 8.717 21.952 0 17.673-14.327 32-32 32-0.004 0-0.009 0-0.013 0h-127.359l16.384 53.312h-66.944l-10.624-34.56-12.736-41.344c-0.897-2.814-1.414-6.051-1.414-9.408 0-17.673 14.327-32 32-32 0.002 0 0.004 0 0.007 0h96.64l-130.56-138.688zM524.48 640h66.88l19.712 64h-117.888l-60.288-64h87.936l5.44 5.76-1.792-5.76zM678.080 704l-19.712-64h109.632c35.346 0 64-28.654 64-64v0-256c0-35.346-28.654-64-64-64v0h-174.336l-60.288-64h234.624c70.692 0 128 57.308 128 128v0 256c0 70.692-57.308 128-128 128v0h-89.92zM653.888 320h114.112v126.72c-4.342-8.337-9.476-15.514-15.469-21.872l0.045 0.048-98.688-104.896zM768 534.656v41.344h-41.344c17.828-9.323 32.022-23.516 41.092-40.817l0.252-0.527z" />
<glyph unicode="&#xe936;" glyph-name="battery-full" d="M768 640v0c35.346 0 64-28.654 64-64v-256c0-35.346-28.654-64-64-64h-640c-35.346 0-64 28.654-64 64v256c0 35.346 28.654 64 64 64h640zM128 704c-70.692 0-128-57.308-128-128v0-256c0-70.692 57.308-128 128-128v0h640c70.692 0 128 57.308 128 128v0 256c0 70.692-57.308 128-128 128v0h-640zM128 576h640v-256h-640v256zM928 352c53.019 0 96 42.981 96 96s-42.981 96-96 96v0-192z" />
<glyph unicode="&#xe937;" glyph-name="battery-half" d="M768 640v0c35.346 0 64-28.654 64-64v-256c0-35.346-28.654-64-64-64h-640c-35.346 0-64 28.654-64 64v256c0 35.346 28.654 64 64 64h640zM128 704c-70.692 0-128-57.308-128-128v0-256c0-70.692 57.308-128 128-128v0h640c70.692 0 128 57.308 128 128v0 256c0 70.692-57.308 128-128 128v0h-640zM128 576h320v-256h-320v256zM928 352c53.019 0 96 42.981 96 96s-42.981 96-96 96v0-192z" />
<glyph unicode="&#xe938;" glyph-name="battery" d="M768 640v0c35.346 0 64-28.654 64-64v-256c0-35.346-28.654-64-64-64h-640c-35.346 0-64 28.654-64 64v256c0 35.346 28.654 64 64 64h640zM128 704c-70.692 0-128-57.308-128-128v0-256c0-70.692 57.308-128 128-128v0h640c70.692 0 128 57.308 128 128v0 256c0 70.692-57.308 128-128 128v0h-640zM928 352c53.019 0 96 42.981 96 96s-42.981 96-96 96v0-192z" />
<glyph unicode="&#xe939;" glyph-name="bell-fill" d="M512-64c70.692 0 128 57.308 128 128v0h-256c0-70.692 57.308-128 128-128v0zM575.68 889.664c0.204 1.917 0.32 4.141 0.32 6.392 0 35.346-28.654 64-64 64s-64-28.654-64-64c0-2.251 0.116-4.475 0.343-6.666l-0.023 0.274c-147.26-30.739-256.3-159.465-256.32-313.661v-0.003c0-70.272-32-384-128-448h896c-96 64-128 377.728-128 448 0 154.88-110.080 284.16-256.32 313.664z" />
<glyph unicode="&#xe93a;" glyph-name="bell" d="M512-64c70.692 0 128 57.308 128 128v0h-256c0-70.692 57.308-128 128-128v0zM512 837.248l-51.008-10.304c-117.78-24.627-204.978-127.601-204.992-250.943v-0.001c0-40.192-8.576-140.608-29.376-239.488-10.24-49.088-24.064-100.224-42.432-144.512h655.616c-18.368 44.288-32.128 95.36-42.432 144.512-20.8 98.88-29.376 199.296-29.376 239.488-0.046 123.317-87.233 226.257-203.325 250.588l-1.667 0.292-51.008 10.432zM910.080 192c14.272-28.608 30.784-51.264 49.92-64h-896c19.136 12.736 35.648 35.392 49.92 64 57.6 115.2 78.080 327.68 78.080 384 0 154.88 110.080 284.16 256.32 313.664-0.204 1.917-0.32 4.141-0.32 6.392 0 35.346 28.654 64 64 64s64-28.654 64-64c0-2.251-0.116-4.475-0.343-6.666l0.023 0.274c147.26-30.739 256.3-159.465 256.32-313.661v-0.003c0-56.32 20.48-268.8 78.080-384z" />
<glyph unicode="&#xe93b;" glyph-name="blockquote-left" d="M128 736c0 17.673 14.327 32 32 32v0h704c17.673 0 32-14.327 32-32s-14.327-32-32-32v0h-704c-17.673 0-32 14.327-32 32v0zM448 544c0 17.673 14.327 32 32 32v0h384c17.673 0 32-14.327 32-32s-14.327-32-32-32v0h-384c-17.673 0-32 14.327-32 32v0zM448 352c0 17.673 14.327 32 32 32v0h384c17.673 0 32-14.327 32-32s-14.327-32-32-32v0h-384c-17.673 0-32 14.327-32 32v0zM128 160c0 17.673 14.327 32 32 32v0h704c17.673 0 32-14.327 32-32s-14.327-32-32-32v0h-704c-17.673 0-32 14.327-32 32v0zM238.976 553.472c-11.593-6.549-20.892-12.372-29.939-18.538l1.459 0.938c-8.345-5.687-15.604-11.991-22.059-19.042l-0.085-0.094c-6.433-6.735-11.833-14.53-15.899-23.081l-0.229-0.535c-3.712-8.256-6.4-18.88-7.872-31.872h18.048c15.488 0 27.584-3.84 36.352-11.648 8.96-7.488 13.44-18.56 13.44-33.344-0.207-11.483-4.722-21.873-11.992-29.658l0.024 0.026c-7.68-8.96-18.496-13.44-32.192-13.44-21.504 0-36.928 6.912-46.144 20.928-9.28 14.272-13.888 32.896-13.888 55.872 0 16.256 3.52 31.040 10.496 44.288 7.040 13.44 15.488 25.472 25.472 35.968 10.24 10.752 21.12 19.84 32.64 27.392 11.52 7.488 21.12 13.632 28.864 18.368l13.504-22.528zM377.728 553.472c-11.593-6.549-20.892-12.373-29.939-18.539l1.459 0.939c-8.345-5.687-15.604-11.991-22.059-19.042l-0.085-0.094c-7.232-7.68-12.736-15.744-16.448-24-3.8-9.213-6.477-19.891-7.518-31.044l-0.034-0.444h18.048c15.488 0 27.584-3.84 36.352-11.648 8.96-7.488 13.44-18.56 13.44-33.344-0.207-11.483-4.722-21.873-11.992-29.658l0.024 0.026c-7.68-8.96-18.496-13.44-32.256-13.44-21.44 0-36.864 6.912-46.080 20.928-9.28 14.272-13.888 32.896-13.888 55.872 0 16.256 3.52 31.040 10.496 44.288 7.040 13.44 15.488 25.472 25.472 35.968 10.24 10.752 21.12 19.84 32.64 27.392 11.52 7.488 21.12 13.632 28.864 18.368l13.504-22.528z" />
<glyph unicode="&#xe93c;" glyph-name="blockquote-right" d="M128 736c0 17.673 14.327 32 32 32v0h704c17.673 0 32-14.327 32-32s-14.327-32-32-32v0h-704c-17.673 0-32 14.327-32 32v0zM128 544c0 17.673 14.327 32 32 32v0h384c17.673 0 32-14.327 32-32s-14.327-32-32-32v0h-384c-17.673 0-32 14.327-32 32v0zM128 352c0 17.673 14.327 32 32 32v0h384c17.673 0 32-14.327 32-32s-14.327-32-32-32v0h-384c-17.673 0-32 14.327-32 32v0zM128 160c0 17.673 14.327 32 32 32v0h704c17.673 0 32-14.327 32-32s-14.327-32-32-32v0h-704c-17.673 0-32 14.327-32 32v0zM778.752 553.472c11.776-6.72 21.248-12.608 28.48-17.6 7.296-4.736 14.656-11.136 22.144-19.136 7.040-7.488 12.352-15.36 16.128-23.616s6.4-18.88 7.872-31.872h-17.984c-15.552 0-27.648-3.84-36.416-11.648-8.96-7.488-13.44-18.56-13.44-33.344 0-10.496 3.968-20.352 11.968-29.632 7.744-8.96 18.496-13.44 32.256-13.44 21.504 0 36.864 6.912 46.080 20.928 9.28 14.272 13.888 32.896 13.888 55.872 0 16.256-3.456 31.040-10.496 44.288-7.141 13.75-15.622 25.58-25.538 36.038l0.066-0.070c-10.24 10.752-21.12 19.84-32.64 27.392-11.52 7.488-21.12 13.632-28.864 18.368l-13.504-22.528zM640 553.472c11.776-6.72 21.248-12.608 28.48-17.6 7.296-4.736 14.656-11.136 22.144-19.136 7.232-7.68 12.8-15.744 16.512-24 3.52-8 6.016-18.496 7.488-31.488h-17.984c-15.488 0-27.648-3.84-36.416-11.648-8.96-7.488-13.44-18.56-13.44-33.344 0-10.496 3.968-20.352 11.968-29.632 7.744-8.96 18.496-13.44 32.256-13.44 21.504 0 36.864 6.912 46.080 20.928 9.28 14.272 13.888 32.896 13.888 55.872 0 16.256-3.456 31.040-10.496 44.288-7.143 13.749-15.624 25.58-25.538 36.038l0.066-0.070c-10.24 10.752-21.12 19.84-32.64 27.392-11.52 7.488-21.12 13.632-28.864 18.368l-13.504-22.528z" />
<glyph unicode="&#xe93d;" glyph-name="book-half" d="M205.696 891.392c102.336 20.48 236.928 23.168 328.96-68.736 5.774-5.788 9.344-13.776 9.344-22.599 0-0.020 0-0.040 0-0.060v0.003-704c0-0.017 0-0.037 0-0.057 0-17.673-14.327-32-32-32-8.851 0-16.862 3.593-22.655 9.401l-0.001 0.001c-53.952 54.016-135.36 67.776-222.080 58.88-86.016-8.96-170.24-39.488-220.928-64.832-4.176-2.138-9.11-3.391-14.336-3.391-17.673 0-31.999 14.326-32 31.999v0 704c0 12.446 7.106 23.233 17.483 28.524l0.181 0.084 0.384 0.192 0.832 0.384c2.733 1.472 7.359 3.679 12.045 5.778l2.035 0.814c49.424 22.818 107.208 42.005 167.396 54.665l5.404 0.951zM64 779.52v-634.112c54.144 21.952 124.416 43.008 196.736 50.432 73.152 7.552 152.768 1.472 219.264-35.84v626.048c-68.032 59.456-168.384 61.184-261.76 42.496-58.64-12.169-110.222-29.079-159.090-50.965l4.85 1.941zM818.304 891.392c-102.272 20.48-236.928 23.168-328.96-68.736-5.774-5.788-9.344-13.776-9.344-22.599 0-0.020 0-0.040 0-0.060v0.003-704c0-0.017 0-0.037 0-0.057 0-17.673 14.327-32 32-32 8.851 0 16.862 3.593 22.655 9.401l0.001 0.001c53.952 54.016 135.36 67.776 222.080 58.88 86.016-8.96 170.24-39.488 220.928-64.832 4.176-2.138 9.11-3.391 14.336-3.391 17.673 0 31.999 14.326 32 31.999v0 704c0 12.446-7.106 23.233-17.483 28.524l-0.181 0.084-0.384 0.192-0.832 0.384-3.008 1.472c-11.673 5.786-28.53 13.111-45.674 19.864l-5.462 1.896c-37.055 14.919-81.462 28.359-127.262 38.021l-5.41 0.955z" />
<glyph unicode="&#xe93e;" glyph-name="book" d="M205.696 891.392c102.336 20.48 236.928 23.168 328.96-68.736 5.774-5.788 9.344-13.776 9.344-22.599 0-0.020 0-0.040 0-0.060v0.003-704c0-0.017 0-0.037 0-0.057 0-17.673-14.327-32-32-32-8.851 0-16.862 3.593-22.655 9.401l-0.001 0.001c-53.952 54.016-135.36 67.776-222.080 58.88-86.016-8.96-170.24-39.488-220.928-64.832-4.176-2.138-9.11-3.391-14.336-3.391-17.673 0-31.999 14.326-32 31.999v0 704c0 12.446 7.106 23.233 17.483 28.524l0.181 0.084 0.384 0.192 0.832 0.384c2.733 1.472 7.359 3.679 12.045 5.778l2.035 0.814c49.424 22.818 107.208 42.005 167.396 54.665l5.404 0.951zM64 779.52v-634.112c54.144 21.952 124.416 43.008 196.736 50.432 73.152 7.552 152.768 1.472 219.264-35.84v626.048c-68.032 59.456-168.384 61.184-261.76 42.496-58.64-12.169-110.222-29.079-159.090-50.965l4.85 1.941zM818.304 891.392c-102.272 20.48-236.928 23.168-328.96-68.736-5.774-5.788-9.344-13.776-9.344-22.599 0-0.020 0-0.040 0-0.060v0.003-704c0-0.017 0-0.037 0-0.057 0-17.673 14.327-32 32-32 8.851 0 16.862 3.593 22.655 9.401l0.001 0.001c53.952 54.016 135.36 67.776 222.080 58.88 86.016-8.96 170.24-39.488 220.928-64.832 4.176-2.138 9.11-3.391 14.336-3.391 17.673 0 31.999 14.326 32 31.999v0 704c0 12.446-7.106 23.233-17.483 28.524l-0.181 0.084-0.384 0.192-0.832 0.384-3.008 1.472c-11.673 5.786-28.53 13.111-45.674 19.864l-5.462 1.896c-37.055 14.919-81.462 28.359-127.262 38.021l-5.41 0.955zM960 779.52v-634.112c-54.144 21.952-124.416 43.008-196.736 50.432-73.152 7.552-152.768 1.472-219.264-35.84v626.048c68.032 59.456 168.384 61.184 261.76 42.496 58.639-12.168 110.221-29.078 159.089-50.965l-4.849 1.941z" />
<glyph unicode="&#xe93f;" glyph-name="bookmark-check" d="M288 832c-17.673 0-32-14.327-32-32v0-708.224l256 170.688 256-170.688v324.224c0 17.673 14.327 32 32 32s32-14.327 32-32v0-443.776l-320 213.312-320-213.312v827.776c0 53.019 42.981 96 96 96v0h256c17.673 0 32-14.327 32-32s-14.327-32-32-32v0h-256zM1014.656 822.656c5.808-5.794 9.401-13.805 9.401-22.656s-3.593-16.862-9.401-22.655l-192.001-192.001c-5.794-5.808-13.805-9.401-22.656-9.401s-16.862 3.593-22.655 9.401l-96.001 96.001c-5.798 5.798-9.384 13.808-9.384 22.656 0 17.695 14.345 32.040 32.040 32.040 8.848 0 16.858-3.586 22.656-9.384v0l73.344-73.408 169.344 169.408c5.794 5.808 13.805 9.401 22.656 9.401s16.862-3.593 22.655-9.401l0.001-0.001z" />
<glyph unicode="&#xe940;" glyph-name="bookmark-dash" d="M704 736c0 17.673 14.327 32 32 32v0h256c17.673 0 32-14.327 32-32s-14.327-32-32-32v0h-256c-17.673 0-32 14.327-32 32v0zM288 832c-17.673 0-32-14.327-32-32v0-708.224l256 170.688 256-170.688v324.224c0 17.673 14.327 32 32 32s32-14.327 32-32v0-443.776l-320 213.312-320-213.312v827.776c0 53.019 42.981 96 96 96v0h256c17.673 0 32-14.327 32-32s-14.327-32-32-32v0h-256z" />
<glyph unicode="&#xe941;" glyph-name="bookmark-fill" d="M192 768c0 70.692 57.308 128 128 128v0h384c70.692 0 128-57.308 128-128v0-768l-320 192-320-192v768z" />
<glyph unicode="&#xe942;" glyph-name="bookmark-plus" d="M288 832c-17.673 0-32-14.327-32-32v0-708.224l256 170.688 256-170.688v324.224c0 17.673 14.327 32 32 32s32-14.327 32-32v0-443.776l-320 213.312-320-213.312v827.776c0 53.019 42.981 96 96 96v0h256c17.673 0 32-14.327 32-32s-14.327-32-32-32v0h-256zM864 896c17.673 0 32-14.327 32-32v0-128c0-17.673-14.327-32-32-32v0h-128c-17.673 0-32 14.327-32 32s14.327 32 32 32v0h96v96c0 17.673 14.327 32 32 32v0zM832 736c0 17.673 14.327 32 32 32v0h128c17.673 0 32-14.327 32-32s-14.327-32-32-32v0h-96v-96c0-17.673-14.327-32-32-32s-32 14.327-32 32v0 128z" />
<glyph unicode="&#xe943;" glyph-name="bookmark" d="M512 192l-320-192v768c0 70.692 57.308 128 128 128h384c70.692 0 128-57.308 128-128v-768l-320 192zM256 113.024l256 153.6 256-153.6v654.976c0 35.346-28.654 64-64 64v0h-384c-35.346 0-64-28.654-64-64v0-654.976z" />
<glyph unicode="&#xe944;" glyph-name="bookmarks-fill" d="M128 704c0 70.692 57.308 128 128 128v0h384c70.692 0 128-57.308 128-128v0-768l-320 192-320-192v768zM896 64l-64 38.4v729.6c0 35.346-28.654 64-64 64v0h-494.848c22.543 38.529 63.721 63.999 110.848 64h384c70.692 0 128-57.308 128-128v0-768z" />
<glyph unicode="&#xe945;" glyph-name="bookmarks" d="M448 128l-320-192v768c0 70.692 57.308 128 128 128h384c70.692 0 128-57.308 128-128v-768l-320 192zM192 49.024l256 153.6 256-153.6v654.976c0 35.346-28.654 64-64 64v0h-384c-35.346 0-64-28.654-64-64v0-654.976zM896 64l-64 38.4v729.6c0 35.346-28.654 64-64 64v0h-494.848c22.543 38.529 63.721 63.999 110.848 64h384c70.692 0 128-57.308 128-128v0-768z" />
<glyph unicode="&#xe946;" glyph-name="bootstrap-fill" d="M256.128 960h512c141.385 0 256-114.615 256-256v-512c0-141.385-114.615-256-256-256h-512c-141.385 0-256 114.615-256 256v512c0 141.385 114.615 256 256 256zM323.968 192h222.4c115.456 0 184.832 58.112 184.832 153.344 0 70.528-48.704 122.624-121.856 130.176v6.4c53.248 8.96 94.848 59.52 94.848 116.224 0 83.2-61.12 135.040-162.688 135.040h-217.536v-541.184zM408 504h99.712c74.24 0 112.896 27.392 112.896 78.72 0 49.92-36.416 79.168-98.688 79.168h-113.92v-157.888zM408 263.232v174.4h116.608c79.104 0 120.704-29.632 120.704-86.272 0-57.408-40.064-88.128-115.84-88.128h-121.472z" />
<glyph unicode="&#xe947;" glyph-name="bootstrap-reboot" d="M74.304 448c0-241.768 195.992-437.76 437.76-437.76s437.76 195.992 437.76 437.76c0 241.723-195.919 437.687-437.625 437.76h-0.007c-20.501 0-37.12 16.619-37.12 37.12s16.619 37.12 37.12 37.12v0c282.705-0.086 511.849-229.283 511.849-512 0-282.77-229.23-512-512-512s-512 229.23-512 512c0 109.949 34.657 211.804 93.643 295.236l-1.076-1.604-42.432 36.928c-7.839 6.842-12.764 16.852-12.764 28.013 0 17.004 11.433 31.337 27.031 35.733l0.261 0.063 161.28 44.16c2.93 0.831 6.295 1.309 9.771 1.309 20.501 0 37.12-16.619 37.12-37.12 0-1.657-0.109-3.289-0.319-4.889l0.020 0.188-21.248-165.888c-2.417-18.374-17.979-32.411-36.82-32.411-9.344 0-17.882 3.453-24.408 9.152l0.044-0.037-41.152 35.84c-46.812-68.444-74.752-153.016-74.752-244.113 0-0.197 0-0.393 0-0.59v0.031zM425.024 453.056v169.216h100.48c56.384 0 90.624-31.936 90.624-84.48 0-53.76-32.256-84.736-88.704-84.736h-102.4zM425.024 213.056v180.992h100.48l95.872-180.992h84.096l-105.344 192.384c57.408 19.2 91.328 70.784 91.328 134.4 0 87.68-60.352 143.744-157.184 143.744h-182.272v-470.528h73.024z" />
<glyph unicode="&#xe948;" glyph-name="bootstrap" d="M768 896v0c106.039 0 192-85.961 192-192v-512c0-106.039-85.961-192-192-192h-512c-106.039 0-192 85.961-192 192v512c0 106.039 85.961 192 192 192h512zM256 960c-141.385 0-256-114.615-256-256v0-512c0-141.385 114.615-256 256-256v0h512c141.385 0 256 114.615 256 256v0 512c0 141.385-114.615 256-256 256v0h-512zM546.368 192h-222.4v541.12h217.536c101.568 0 162.752-51.776 162.752-135.040 0-56.576-41.6-107.2-94.912-116.224v-6.4c73.152-7.488 121.856-59.584 121.856-130.112 0-95.232-69.376-153.344-184.832-153.344zM408 661.888v-157.888h99.712c74.24 0 112.896 27.392 112.896 78.72 0 49.92-36.416 79.168-98.624 79.168h-113.984zM529.472 263.232c75.776 0 115.904 30.784 115.904 88.128 0 56.64-41.664 86.272-120.768 86.272h-116.608v-174.4h121.472z" />
<glyph unicode="&#xe949;" glyph-name="bounding-box-circles" d="M800 832h-576v64h576v-64zM160 736v-576h-64v576h64zM864 160v576h64v-576h-64zM224 64h576v-64h-576v64zM896 768c35.346 0 64 28.654 64 64s-28.654 64-64 64v0c-35.346 0-64-28.654-64-64s28.654-64 64-64v0zM896 704c70.692 0 128 57.308 128 128s-57.308 128-128 128v0c-70.692 0-128-57.308-128-128s57.308-128 128-128v0zM896 0c35.346 0 64 28.654 64 64s-28.654 64-64 64v0c-35.346 0-64-28.654-64-64s28.654-64 64-64v0zM896-64c70.692 0 128 57.308 128 128s-57.308 128-128 128v0c-70.692 0-128-57.308-128-128s57.308-128 128-128v0zM128 768c35.346 0 64 28.654 64 64s-28.654 64-64 64v0c-35.346 0-64-28.654-64-64s28.654-64 64-64v0zM128 704c70.692 0 128 57.308 128 128s-57.308 128-128 128v0c-70.692 0-128-57.308-128-128s57.308-128 128-128v0zM128 0c35.346 0 64 28.654 64 64s-28.654 64-64 64v0c-35.346 0-64-28.654-64-64s28.654-64 64-64v0zM128-64c70.692 0 128 57.308 128 128s-57.308 128-128 128v0c-70.692 0-128-57.308-128-128s57.308-128 128-128v0z" />
<glyph unicode="&#xe94a;" glyph-name="bounding-box" d="M320 832h384v128h320v-320h-128v-384h128v-320h-320v128h-384v-128h-320v320h128v384h-128v320h320v-128zM704 768h-384v-128h-128v-384h128v-128h384v128h128v384h-128v128zM768 896v-192h192v192h-192zM960 192h-192v-192h192v192zM256 0v192h-192v-192h192zM64 704h192v192h-192v-192z" />
<glyph unicode="&#xe94b;" glyph-name="box-arrow-down-left" d="M832 864c53.019 0 96-42.981 96-96v0-512c0-53.019-42.981-96-96-96v0h-256c-17.673 0-32 14.327-32 32s14.327 32 32 32v0h256c17.673 0 32 14.327 32 32v0 512c0 17.673-14.327 32-32 32v0h-512c-17.673 0-32-14.327-32-32v0-256c0-17.673-14.327-32-32-32s-32 14.327-32 32v0 256c0 53.019 42.981 96 96 96v0h512zM128 416c-17.673 0-32-14.327-32-32v0-320c0-17.673 14.327-32 32-32v0h320c17.673 0 32 14.327 32 32s-14.327 32-32 32v0h-288v288c0 17.673-14.327 32-32 32v0zM105.344 41.344c5.794-5.808 13.805-9.401 22.656-9.401s16.862 3.593 22.655 9.401l512.001 512.001c5.798 5.798 9.384 13.808 9.384 22.656 0 17.695-14.345 32.040-32.040 32.040-8.848 0-16.858-3.586-22.656-9.384v0l-512-512c-5.808-5.794-9.401-13.805-9.401-22.656s3.593-16.862 9.401-22.655l0.001-0.001z" />
<glyph unicode="&#xe94c;" glyph-name="box-arrow-down-right" d="M192 864c-53.019 0-96-42.981-96-96v0-512c0-53.019 42.981-96 96-96v0h256c17.673 0 32 14.327 32 32s-14.327 32-32 32v0h-256c-17.673 0-32 14.327-32 32v0 512c0 17.673 14.327 32 32 32v0h512c17.673 0 32-14.327 32-32v0-256c0-17.673 14.327-32 32-32s32 14.327 32 32v0 256c0 53.019-42.981 96-96 96v0h-512zM896 416c17.673 0 32-14.327 32-32v0-320c0-17.673-14.327-32-32-32v0h-320c-17.673 0-32 14.327-32 32s14.327 32 32 32v0h288v288c0 17.673 14.327 32 32 32v0zM918.656 41.344c-5.794-5.808-13.805-9.401-22.656-9.401s-16.862 3.593-22.655 9.401l-512.001 512.001c-5.798 5.798-9.384 13.808-9.384 22.656 0 17.695 14.345 32.040 32.040 32.040 8.848 0 16.858-3.586 22.656-9.384v0l512-512c5.808-5.794 9.401-13.805 9.401-22.656s-3.593-16.862-9.401-22.655l-0.001-0.001z" />
<glyph unicode="&#xe94d;" glyph-name="box-arrow-down" d="M297.344 214.656c5.794 5.808 13.805 9.401 22.656 9.401s16.862-3.593 22.655-9.401l169.345-169.409 169.344 169.408c5.798 5.798 13.808 9.384 22.656 9.384 17.695 0 32.040-14.345 32.040-32.040 0-8.848-3.586-16.858-9.384-22.656v0l-192-192c-5.794-5.808-13.805-9.401-22.656-9.401s-16.862 3.593-22.655 9.401l-192.001 192.001c-5.808 5.794-9.401 13.805-9.401 22.656s3.593 16.862 9.401 22.655l0.001 0.001zM512 672c17.673 0 32-14.327 32-32v0-576c0-17.673-14.327-32-32-32s-32 14.327-32 32v0 576c0 17.673 14.327 32 32 32v0zM160 832c0 53.019 42.981 96 96 96v0h512c53.019 0 96-42.981 96-96v0-448c0-53.019-42.981-96-96-96v0h-96c-17.673 0-32 14.327-32 32s14.327 32 32 32v0h96c17.673 0 32 14.327 32 32v0 448c0 17.673-14.327 32-32 32v0h-512c-17.673 0-32-14.327-32-32v0-448c0-17.673 14.327-32 32-32v0h96c17.673 0 32-14.327 32-32s-14.327-32-32-32v0h-96c-53.019 0-96 42.981-96 96v0 448z" />
<glyph unicode="&#xe94e;" glyph-name="box-arrow-in-down-left" d="M96 128c0-53.019 42.981-96 96-96v0h640c53.019 0 96 42.981 96 96v0 320c0 17.673-14.327 32-32 32s-32-14.327-32-32v0-320c0-17.673-14.327-32-32-32v0h-640c-17.673 0-32 14.327-32 32v0 640c0 17.673 14.327 32 32 32v0h256c17.673 0 32 14.327 32 32s-14.327 32-32 32v0h-256c-53.019 0-96-42.981-96-96v0-640zM736 320c0-17.673-14.327-32-32-32v0h-320c-17.673 0-32 14.327-32 32v0 320c0 17.673 14.327 32 32 32s32-14.327 32-32v0-288h288c17.673 0 32-14.327 32-32v0zM361.344 297.344c-5.808 5.794-9.401 13.805-9.401 22.656s3.593 16.862 9.401 22.655l512.001 512.001c5.798 5.798 13.808 9.384 22.656 9.384 17.695 0 32.040-14.345 32.040-32.040 0-8.848-3.586-16.858-9.384-22.656v0l-512-512c-5.794-5.808-13.805-9.401-22.656-9.401s-16.862 3.593-22.655 9.401l-0.001 0.001z" />
<glyph unicode="&#xe94f;" glyph-name="box-arrow-in-down-right" d="M928 128c0-53.019-42.981-96-96-96v0h-640c-53.019 0-96 42.981-96 96v0 320c0 17.673 14.327 32 32 32s32-14.327 32-32v0-320c0-17.673 14.327-32 32-32v0h640c17.673 0 32 14.327 32 32v0 640c0 17.673-14.327 32-32 32v0h-256c-17.673 0-32 14.327-32 32s14.327 32 32 32v0h256c53.019 0 96-42.981 96-96v0-640zM288 320c0-17.673 14.327-32 32-32v0h320c17.673 0 32 14.327 32 32v0 320c0 17.673-14.327 32-32 32s-32-14.327-32-32v0-288h-288c-17.673 0-32-14.327-32-32v0zM662.656 297.344c5.808 5.794 9.401 13.805 9.401 22.656s-3.593 16.862-9.401 22.655l-512.001 512.001c-5.798 5.798-13.808 9.384-22.656 9.384-17.695 0-32.040-14.345-32.040-32.040 0-8.848 3.586-16.858 9.384-22.656l512-512c5.794-5.808 13.805-9.401 22.656-9.401s16.862 3.593 22.655 9.401l0.001 0.001z" />
<glyph unicode="&#xe950;" glyph-name="box-arrow-in-down" d="M297.344 438.656c5.794 5.808 13.805 9.401 22.656 9.401s16.862-3.593 22.655-9.401l169.345-169.409 169.344 169.408c5.798 5.798 13.808 9.384 22.656 9.384 17.695 0 32.040-14.345 32.040-32.040 0-8.848-3.586-16.858-9.384-22.656v0l-192-192c-5.794-5.808-13.805-9.401-22.656-9.401s-16.862 3.593-22.655 9.401l-192.001 192.001c-5.808 5.794-9.401 13.805-9.401 22.656s3.593 16.862 9.401 22.655l0.001 0.001zM512 896c17.673 0 32-14.327 32-32v0-576c0-17.673-14.327-32-32-32s-32 14.327-32 32v0 576c0 17.673 14.327 32 32 32v0zM96 96c0-53.019 42.981-96 96-96v0h640c53.019 0 96 42.981 96 96v0 512c0 53.019-42.981 96-96 96v0h-96c-17.673 0-32-14.327-32-32s14.327-32 32-32v0h96c17.673 0 32-14.327 32-32v0-512c0-17.673-14.327-32-32-32v0h-640c-17.673 0-32 14.327-32 32v0 512c0 17.673 14.327 32 32 32v0h96c17.673 0 32 14.327 32 32s-14.327 32-32 32v0h-96c-53.019 0-96-42.981-96-96v0-512z" />
<glyph unicode="&#xe951;" glyph-name="box-arrow-in-left" d="M502.656 233.344c5.808 5.794 9.401 13.805 9.401 22.656s-3.593 16.862-9.401 22.655l-169.409 169.345 169.408 169.344c5.798 5.798 9.384 13.808 9.384 22.656 0 17.695-14.345 32.040-32.040 32.040-8.848 0-16.858-3.586-22.656-9.384v0l-192-192c-5.808-5.794-9.401-13.805-9.401-22.656s3.593-16.862 9.401-22.655l192.001-192.001c5.794-5.808 13.805-9.401 22.656-9.401s16.862 3.593 22.655 9.401l0.001 0.001zM960 448c0 17.673-14.327 32-32 32v0h-576c-17.673 0-32-14.327-32-32s14.327-32 32-32v0h576c17.673 0 32 14.327 32 32v0zM160 32c-53.019 0-96 42.981-96 96v0 640c0 53.019 42.981 96 96 96v0h512c53.019 0 96-42.981 96-96v0-96c0-17.673-14.327-32-32-32s-32 14.327-32 32v0 96c0 17.673-14.327 32-32 32v0h-512c-17.673 0-32-14.327-32-32v0-640c0-17.673 14.327-32 32-32v0h512c17.673 0 32 14.327 32 32v0 96c0 17.673 14.327 32 32 32s32-14.327 32-32v0-96c0-53.019-42.981-96-96-96v0h-512z" />
<glyph unicode="&#xe952;" glyph-name="box-arrow-in-right" d="M521.344 233.344c-5.808 5.794-9.401 13.805-9.401 22.656s3.593 16.862 9.401 22.655l169.409 169.345-169.408 169.344c-5.798 5.798-9.384 13.808-9.384 22.656 0 17.695 14.345 32.040 32.040 32.040 8.848 0 16.858-3.586 22.656-9.384v0l192-192c5.808-5.794 9.401-13.805 9.401-22.656s-3.593-16.862-9.401-22.655l-192.001-192.001c-5.794-5.808-13.805-9.401-22.656-9.401s-16.862 3.593-22.655 9.401l-0.001 0.001zM64 448c0 17.673 14.327 32 32 32v0h576c17.673 0 32-14.327 32-32s-14.327-32-32-32v0h-576c-17.673 0-32 14.327-32 32v0zM864 32c53.019 0 96 42.981 96 96v0 640c0 53.019-42.981 96-96 96v0h-512c-53.019 0-96-42.981-96-96v0-96c0-17.673 14.327-32 32-32s32 14.327 32 32v0 96c0 17.673 14.327 32 32 32v0h512c17.673 0 32-14.327 32-32v0-640c0-17.673-14.327-32-32-32v0h-512c-17.673 0-32 14.327-32 32v0 96c0 17.673-14.327 32-32 32s-32-14.327-32-32v0-96c0-53.019 42.981-96 96-96v0h512z" />
<glyph unicode="&#xe953;" glyph-name="box-arrow-in-up-left" d="M96 768c0 53.019 42.981 96 96 96v0h640c53.019 0 96-42.981 96-96v0-320c0-17.673-14.327-32-32-32s-32 14.327-32 32v0 320c0 17.673-14.327 32-32 32v0h-640c-17.673 0-32-14.327-32-32v0-640c0-17.673 14.327-32 32-32v0h256c17.673 0 32-14.327 32-32s-14.327-32-32-32v0h-256c-53.019 0-96 42.981-96 96v0 640zM736 576c0 17.673-14.327 32-32 32v0h-320c-17.673 0-32-14.327-32-32v0-320c0-17.673 14.327-32 32-32s32 14.327 32 32v0 288h288c17.673 0 32 14.327 32 32v0zM361.344 598.656c-5.808-5.794-9.401-13.805-9.401-22.656s3.593-16.862 9.401-22.655l512.001-512.001c5.798-5.798 13.808-9.384 22.656-9.384 17.695 0 32.040 14.345 32.040 32.040 0 8.848-3.586 16.858-9.384 22.656v0l-512 512c-5.794 5.808-13.805 9.401-22.656 9.401s-16.862-3.593-22.655-9.401l-0.001-0.001z" />
<glyph unicode="&#xe954;" glyph-name="box-arrow-in-up-right" d="M928 768c0 53.019-42.981 96-96 96v0h-640c-53.019 0-96-42.981-96-96v0-320c0-17.673 14.327-32 32-32s32 14.327 32 32v0 320c0 17.673 14.327 32 32 32v0h640c17.673 0 32-14.327 32-32v0-640c0-17.673-14.327-32-32-32v0h-256c-17.673 0-32-14.327-32-32s14.327-32 32-32v0h256c53.019 0 96 42.981 96 96v0 640zM288 576c0 17.673 14.327 32 32 32v0h320c17.673 0 32-14.327 32-32v0-320c0-17.673-14.327-32-32-32s-32 14.327-32 32v0 288h-288c-17.673 0-32 14.327-32 32v0zM662.656 598.656c5.808-5.794 9.401-13.805 9.401-22.656s-3.593-16.862-9.401-22.655l-512.001-512.001c-5.798-5.798-13.808-9.384-22.656-9.384-17.695 0-32.040 14.345-32.040 32.040 0 8.848 3.586 16.858 9.384 22.656l512 512c5.794 5.808 13.805 9.401 22.656 9.401s16.862-3.593 22.655-9.401l0.001-0.001z" />
<glyph unicode="&#xe955;" glyph-name="box-arrow-in-up" d="M297.344 457.344c5.794-5.808 13.805-9.401 22.656-9.401s16.862 3.593 22.655 9.401l169.345 169.409 169.344-169.408c5.798-5.798 13.808-9.384 22.656-9.384 17.695 0 32.040 14.345 32.040 32.040 0 8.848-3.586 16.858-9.384 22.656v0l-192 192c-5.794 5.808-13.805 9.401-22.656 9.401s-16.862-3.593-22.655-9.401l-192.001-192.001c-5.808-5.794-9.401-13.805-9.401-22.656s3.593-16.862 9.401-22.655l0.001-0.001zM512 0c17.673 0 32 14.327 32 32v0 576c0 17.673-14.327 32-32 32s-32-14.327-32-32v0-576c0-17.673 14.327-32 32-32v0zM96 800c0 53.019 42.981 96 96 96v0h640c53.019 0 96-42.981 96-96v0-512c0-53.019-42.981-96-96-96v0h-96c-17.673 0-32 14.327-32 32s14.327 32 32 32v0h96c17.673 0 32 14.327 32 32v0 512c0 17.673-14.327 32-32 32v0h-640c-17.673 0-32-14.327-32-32v0-512c0-17.673 14.327-32 32-32v0h96c17.673 0 32-14.327 32-32s-14.327-32-32-32v0h-96c-53.019 0-96 42.981-96 96v0 512z" />
<glyph unicode="&#xe956;" glyph-name="box-arrow-left" d="M278.656 233.344c5.808 5.794 9.401 13.805 9.401 22.656s-3.593 16.862-9.401 22.655l-169.409 169.345 169.408 169.344c5.798 5.798 9.384 13.808 9.384 22.656 0 17.695-14.345 32.040-32.040 32.040-8.848 0-16.858-3.586-22.656-9.384v0l-192-192c-5.808-5.794-9.401-13.805-9.401-22.656s3.593-16.862 9.401-22.655l192.001-192.001c5.794-5.808 13.805-9.401 22.656-9.401s16.862 3.593 22.655 9.401l0.001 0.001zM736 448c0 17.673-14.327 32-32 32v0h-576c-17.673 0-32-14.327-32-32s14.327-32 32-32v0h576c17.673 0 32 14.327 32 32v0zM896 96c53.019 0 96 42.981 96 96v0 512c0 53.019-42.981 96-96 96v0h-448c-53.019 0-96-42.981-96-96v0-96c0-17.673 14.327-32 32-32s32 14.327 32 32v0 96c0 17.673 14.327 32 32 32v0h448c17.673 0 32-14.327 32-32v0-512c0-17.673-14.327-32-32-32v0h-448c-17.673 0-32 14.327-32 32v0 96c0 17.673-14.327 32-32 32s-32-14.327-32-32v0-96c0-53.019 42.981-96 96-96v0h448z" />
<glyph unicode="&#xe957;" glyph-name="box-arrow-right" d="M745.344 233.344c-5.808 5.794-9.401 13.805-9.401 22.656s3.593 16.862 9.401 22.655l169.409 169.345-169.408 169.344c-5.798 5.798-9.384 13.808-9.384 22.656 0 17.695 14.345 32.040 32.040 32.040 8.848 0 16.858-3.586 22.656-9.384v0l192-192c5.808-5.794 9.401-13.805 9.401-22.656s-3.593-16.862-9.401-22.655l-192.001-192.001c-5.794-5.808-13.805-9.401-22.656-9.401s-16.862 3.593-22.655 9.401l-0.001 0.001zM288 448c0 17.673 14.327 32 32 32v0h576c17.673 0 32-14.327 32-32s-14.327-32-32-32v0h-576c-17.673 0-32 14.327-32 32v0zM128 96c-53.019 0-96 42.981-96 96v0 512c0 53.019 42.981 96 96 96v0h448c53.019 0 96-42.981 96-96v0-96c0-17.673-14.327-32-32-32s-32 14.327-32 32v0 96c0 17.673-14.327 32-32 32v0h-448c-17.673 0-32-14.327-32-32v0-512c0-17.673 14.327-32 32-32v0h448c17.673 0 32 14.327 32 32v0 96c0 17.673 14.327 32 32 32s32-14.327 32-32v0-96c0-53.019-42.981-96-96-96v0h-448z" />
<glyph unicode="&#xe958;" glyph-name="box-arrow-up-left" d="M928 128c0-53.019-42.981-96-96-96v0h-512c-53.019 0-96 42.981-96 96v0 256c0 17.673 14.327 32 32 32s32-14.327 32-32v0-256c0-17.673 14.327-32 32-32v0h512c17.673 0 32 14.327 32 32v0 512c0 17.673-14.327 32-32 32v0h-256c-17.673 0-32 14.327-32 32s14.327 32 32 32v0h256c53.019 0 96-42.981 96-96v0-512zM480 832c0 17.673-14.327 32-32 32v0h-320c-17.673 0-32-14.327-32-32v0-320c0-17.673 14.327-32 32-32s32 14.327 32 32v0 288h288c17.673 0 32 14.327 32 32v0zM105.344 854.656c-5.808-5.794-9.401-13.805-9.401-22.656s3.593-16.862 9.401-22.655l512.001-512.001c5.798-5.798 13.808-9.384 22.656-9.384 17.695 0 32.040 14.345 32.040 32.040 0 8.848-3.586 16.858-9.384 22.656v0l-512 512c-5.794 5.808-13.805 9.401-22.656 9.401s-16.862-3.593-22.655-9.401l-0.001-0.001z" />
<glyph unicode="&#xe959;" glyph-name="box-arrow-up-right" d="M96 128c0-53.019 42.981-96 96-96v0h512c53.019 0 96 42.981 96 96v0 256c0 17.673-14.327 32-32 32s-32-14.327-32-32v0-256c0-17.673-14.327-32-32-32v0h-512c-17.673 0-32 14.327-32 32v0 512c0 17.673 14.327 32 32 32v0h256c17.673 0 32 14.327 32 32s-14.327 32-32 32v0h-256c-53.019 0-96-42.981-96-96v0-512zM544 832c0 17.673 14.327 32 32 32v0h320c17.673 0 32-14.327 32-32v0-320c0-17.673-14.327-32-32-32s-32 14.327-32 32v0 288h-288c-17.673 0-32 14.327-32 32v0zM918.656 854.656c5.808-5.794 9.401-13.805 9.401-22.656s-3.593-16.862-9.401-22.655l-512.001-512.001c-5.798-5.798-13.808-9.384-22.656-9.384-17.695 0-32.040 14.345-32.040 32.040 0 8.848 3.586 16.858 9.384 22.656v0l512 512c5.794 5.808 13.805 9.401 22.656 9.401s16.862-3.593 22.655-9.401l0.001-0.001z" />
<glyph unicode="&#xe95a;" glyph-name="box-arrow-up" d="M297.344 681.344c5.794-5.808 13.805-9.401 22.656-9.401s16.862 3.593 22.655 9.401l169.345 169.409 169.344-169.408c5.798-5.798 13.808-9.384 22.656-9.384 17.695 0 32.040 14.345 32.040 32.040 0 8.848-3.586 16.858-9.384 22.656v0l-192 192c-5.794 5.808-13.805 9.401-22.656 9.401s-16.862-3.593-22.655-9.401l-192.001-192.001c-5.808-5.794-9.401-13.805-9.401-22.656s3.593-16.862 9.401-22.655l0.001-0.001zM512 224c17.673 0 32 14.327 32 32v0 576c0 17.673-14.327 32-32 32s-32-14.327-32-32v0-576c0-17.673 14.327-32 32-32v0zM160 64c0-53.019 42.981-96 96-96v0h512c53.019 0 96 42.981 96 96v0 448c0 53.019-42.981 96-96 96v0h-96c-17.673 0-32-14.327-32-32s14.327-32 32-32v0h96c17.673 0 32-14.327 32-32v0-448c0-17.673-14.327-32-32-32v0h-512c-17.673 0-32 14.327-32 32v0 448c0 17.673 14.327 32 32 32v0h96c17.673 0 32 14.327 32 32s-14.327 32-32 32v0h-96c-53.019 0-96-42.981-96-96v0-448z" />
<glyph unicode="&#xe95b;" glyph-name="braces" d="M135.296 443.968v10.432c64.32 6.528 95.808 39.36 95.808 102.4v115.008c0 70.016 24.96 98.432 86.656 98.432h17.472v61.76h-24.064c-103.168 0-151.808-48.576-151.808-150.528v-97.536c0-70.016-24.064-93.184-95.36-93.184v-83.136c71.296 0 95.36-23.168 95.36-93.184v-97.536c0-101.952 48.576-150.528 151.808-150.528h24.064v61.696h-17.472c-61.696 0-86.656 28.416-86.656 98.432v115.072c0 62.976-31.488 95.808-95.808 102.4zM888.704 454.4v-10.432c-64.32-6.592-95.808-39.424-95.808-102.4v-115.072c0-70.016-24.96-98.432-86.656-98.432h-17.472v-61.696h24.064c103.232 0 151.808 48.576 151.808 150.528v97.536c0 70.016 24.064 93.184 95.36 93.184v83.136c-71.296 0-95.36 23.168-95.36 93.184v97.536c0 101.952-48.64 150.528-151.808 150.528h-24.064v-61.696h17.472c61.696 0 86.656-28.416 86.656-98.432v-115.072c0-62.976 31.488-95.808 95.808-102.4z" />
<glyph unicode="&#xe95c;" glyph-name="briefcase-fill" d="M0 160c0-53.019 42.981-96 96-96v0h832c53.019 0 96 42.981 96 96v0 361.6l-503.744-134.208c-2.476-0.688-5.32-1.083-8.256-1.083s-5.78 0.395-8.481 1.136l0.225-0.052-503.744 134.208v-361.6zM0 672c0 53.019 42.981 96 96 96v0h832c53.019 0 96-42.981 96-96v0-88.576l-487.296-129.92c-7.41-2.053-15.919-3.233-24.704-3.233s-17.294 1.18-25.377 3.39l0.673-0.157-487.296 129.92v88.576zM320 800c0 53.019 42.981 96 96 96v0h192c53.019 0 96-42.981 96-96v0-32h-64v32c0 17.673-14.327 32-32 32v0h-192c-17.673 0-32-14.327-32-32v0-32h-64v32z" />
<glyph unicode="&#xe95d;" glyph-name="briefcase" d="M0 160c0-53.019 42.981-96 96-96v0h832c53.019 0 96 42.981 96 96v0 384h-64v-384c0-17.673-14.327-32-32-32v0h-832c-17.673 0-32 14.327-32 32v0 384h-64v-384zM0 672c0 53.019 42.981 96 96 96v0h832c53.019 0 96-42.981 96-96v0-152.576l-487.296-129.92c-7.41-2.053-15.919-3.233-24.704-3.233s-17.294 1.18-25.377 3.39l0.673-0.157-487.296 129.92v152.576zM96 704c-17.673 0-32-14.327-32-32v0-103.424l439.744-117.248c2.476-0.688 5.32-1.083 8.256-1.083s5.78 0.395 8.481 1.136l-0.225-0.052 439.744 117.248v103.424c0 17.673-14.327 32-32 32v0h-832zM320 800c0 53.019 42.981 96 96 96v0h192c53.019 0 96-42.981 96-96v0-32h-64v32c0 17.673-14.327 32-32 32v0h-192c-17.673 0-32-14.327-32-32v0-32h-64v32z" />
<glyph unicode="&#xe95e;" glyph-name="brightness-alt-high-fill" d="M256 256c0 141.385 114.615 256 256 256s256-114.615 256-256v0c0-17.673-14.327-32-32-32v0h-448c-17.673 0-32 14.327-32 32v0zM512 768c17.673 0 32-14.327 32-32v0-128c0-17.673-14.327-32-32-32s-32 14.327-32 32v0 128c0 17.673 14.327 32 32 32v0zM1024 256c0-17.673-14.327-32-32-32v0h-128c-17.673 0-32 14.327-32 32s14.327 32 32 32v0h128c17.673 0 32-14.327 32-32v0zM192 256c0-17.673-14.327-32-32-32v0h-128c-17.673 0-32 14.327-32 32s14.327 32 32 32v0h128c17.673 0 32-14.327 32-32v0zM874.048 618.048c5.789-5.791 9.369-13.789 9.369-22.624s-3.58-16.833-9.369-22.624l-90.496-90.496c-5.827-6.027-13.985-9.769-23.017-9.769-17.673 0-32 14.327-32 32 0 9.032 3.742 17.19 9.76 23.009l90.505 90.505c5.791 5.789 13.789 9.369 22.624 9.369s16.833-3.58 22.624-9.369v0zM285.696 482.304c-5.791-5.789-13.789-9.369-22.624-9.369s-16.833 3.58-22.624 9.369l-90.496 90.496c-5.558 5.749-8.983 13.59-8.983 22.231 0 17.673 14.327 32 32 32 8.641 0 16.482-3.425 22.24-8.991l90.487-90.487c5.789-5.791 9.369-13.789 9.369-22.624s-3.58-16.833-9.369-22.624v0z" />
<glyph unicode="&#xe95f;" glyph-name="brightness-alt-high" d="M322.624 288h378.752c-15.715 91.566-94.511 160.366-189.376 160.366s-173.661-68.8-189.214-159.226l-0.162-1.14zM256 256c0 141.385 114.615 256 256 256s256-114.615 256-256v0c0-17.673-14.327-32-32-32v0h-448c-17.673 0-32 14.327-32 32v0zM512 768c17.673 0 32-14.327 32-32v0-128c0-17.673-14.327-32-32-32s-32 14.327-32 32v0 128c0 17.673 14.327 32 32 32v0zM1024 256c0-17.673-14.327-32-32-32v0h-128c-17.673 0-32 14.327-32 32s14.327 32 32 32v0h128c17.673 0 32-14.327 32-32v0zM192 256c0-17.673-14.327-32-32-32v0h-128c-17.673 0-32 14.327-32 32s14.327 32 32 32v0h128c17.673 0 32-14.327 32-32v0zM874.048 618.048c5.789-5.791 9.369-13.789 9.369-22.624s-3.58-16.833-9.369-22.624l-90.496-90.496c-5.827-6.027-13.985-9.769-23.017-9.769-17.673 0-32 14.327-32 32 0 9.032 3.742 17.19 9.76 23.009l90.505 90.505c5.791 5.789 13.789 9.369 22.624 9.369s16.833-3.58 22.624-9.369v0zM285.696 482.304c-5.791-5.789-13.789-9.369-22.624-9.369s-16.833 3.58-22.624 9.369l-90.496 90.496c-5.558 5.749-8.983 13.59-8.983 22.231 0 17.673 14.327 32 32 32 8.641 0 16.482-3.425 22.24-8.991l90.487-90.487c5.789-5.791 9.369-13.789 9.369-22.624s-3.58-16.833-9.369-22.624v0z" />
<glyph unicode="&#xe960;" glyph-name="brightness-alt-low-fill" d="M544 608c0-17.673-14.327-32-32-32s-32 14.327-32 32v0c0 17.673 14.327 32 32 32s32-14.327 32-32v0zM864 224c-17.673 0-32 14.327-32 32s14.327 32 32 32v0c17.673 0 32-14.327 32-32s-14.327-32-32-32v0zM160 224c-17.673 0-32 14.327-32 32s14.327 32 32 32v0c17.673 0 32-14.327 32-32s-14.327-32-32-32v0zM783.552 482.304c-5.827-6.027-13.985-9.769-23.017-9.769-17.673 0-32 14.327-32 32 0 9.032 3.742 17.19 9.76 23.009l0.009 0.009c5.749 5.558 13.59 8.983 22.231 8.983 17.673 0 32-14.327 32-32 0-8.641-3.425-16.482-8.991-22.24l0.009 0.009zM240.448 482.304c-6.027 5.827-9.769 13.985-9.769 23.017 0 17.673 14.327 32 32 32 9.032 0 17.19-3.742 23.009-9.76l0.009-0.009c5.558-5.749 8.983-13.59 8.983-22.231 0-17.673-14.327-32-32-32-8.641 0-16.482 3.425-22.24 8.991l0.009-0.009zM256 256c0 141.385 114.615 256 256 256s256-114.615 256-256v0c0-17.673-14.327-32-32-32v0h-448c-17.673 0-32 14.327-32 32v0z" />
<glyph unicode="&#xe961;" glyph-name="brightness-alt-low" d="M544 608c0-17.673-14.327-32-32-32s-32 14.327-32 32v0c0 17.673 14.327 32 32 32s32-14.327 32-32v0zM864 224c-17.673 0-32 14.327-32 32s14.327 32 32 32v0c17.673 0 32-14.327 32-32s-14.327-32-32-32v0zM160 224c-17.673 0-32 14.327-32 32s14.327 32 32 32v0c17.673 0 32-14.327 32-32s-14.327-32-32-32v0zM783.552 482.304c-5.827-6.027-13.985-9.769-23.017-9.769-17.673 0-32 14.327-32 32 0 9.032 3.742 17.19 9.76 23.009l0.009 0.009c5.749 5.558 13.59 8.983 22.231 8.983 17.673 0 32-14.327 32-32 0-8.641-3.425-16.482-8.991-22.24l0.009 0.009zM240.448 482.304c-6.027 5.827-9.769 13.985-9.769 23.017 0 17.673 14.327 32 32 32 9.032 0 17.19-3.742 23.009-9.76l0.009-0.009c5.558-5.749 8.983-13.59 8.983-22.231 0-17.673-14.327-32-32-32-8.641 0-16.482 3.425-22.24 8.991l0.009-0.009zM322.624 288h378.752c-15.715 91.566-94.511 160.366-189.376 160.366s-173.661-68.8-189.214-159.226l-0.162-1.14zM256 256c0 141.385 114.615 256 256 256s256-114.615 256-256v0c0-17.673-14.327-32-32-32v0h-448c-17.673 0-32 14.327-32 32v0z" />
<glyph unicode="&#xe962;" glyph-name="brightness-high-fill" d="M768 448c0-141.385-114.615-256-256-256s-256 114.615-256 256c0 141.385 114.615 256 256 256s256-114.615 256-256zM512 960c17.673 0 32-14.327 32-32v0-128c0-17.673-14.327-32-32-32s-32 14.327-32 32v0 128c0 17.673 14.327 32 32 32v0zM512 128c17.673 0 32-14.327 32-32v0-128c0-17.673-14.327-32-32-32s-32 14.327-32 32v0 128c0 17.673 14.327 32 32 32v0zM1024 448c0-17.673-14.327-32-32-32v0h-128c-17.673 0-32 14.327-32 32s14.327 32 32 32v0h128c17.673 0 32-14.327 32-32v0zM192 448c0-17.673-14.327-32-32-32v0h-128c-17.673 0-32 14.327-32 32s14.327 32 32 32v0h128c17.673 0 32-14.327 32-32v0zM874.048 810.048c5.789-5.791 9.369-13.789 9.369-22.624s-3.58-16.833-9.369-22.624l-90.496-90.56c-5.792-5.785-13.79-9.362-22.624-9.362-17.683 0-32.018 14.335-32.018 32.018 0 8.849 3.59 16.86 9.393 22.656v0l90.496 90.496c5.791 5.789 13.789 9.369 22.624 9.369s16.833-3.58 22.624-9.369v0zM285.696 221.696c5.789-5.791 9.369-13.789 9.369-22.624s-3.58-16.833-9.369-22.624l-90.496-90.496c-5.749-5.558-13.59-8.983-22.231-8.983-17.673 0-32 14.327-32 32 0 8.641 3.425 16.482 8.991 22.24l90.487 90.487c5.791 5.789 13.789 9.369 22.624 9.369s16.833-3.58 22.624-9.369v0zM874.048 85.952c-5.791-5.789-13.789-9.369-22.624-9.369s-16.833 3.58-22.624 9.369l-90.496 90.496c-5.558 5.749-8.983 13.59-8.983 22.231 0 17.673 14.327 32 32 32 8.641 0 16.482-3.425 22.24-8.991l90.487-90.487c5.789-5.791 9.369-13.789 9.369-22.624s-3.58-16.833-9.369-22.624v0zM285.696 674.24c-5.791-5.789-13.789-9.369-22.624-9.369s-16.833 3.58-22.624 9.369v0l-90.496 90.56c-5.558 5.749-8.983 13.59-8.983 22.231 0 17.673 14.327 32 32 32 8.641 0 16.482-3.425 22.24-8.991l90.487-90.487c5.808-5.794 9.401-13.805 9.401-22.656s-3.593-16.862-9.401-22.655l-0.001-0.001z" />
<glyph unicode="&#xe963;" glyph-name="brightness-high" d="M512 256v0c-106.039 0-192 85.961-192 192s85.961 192 192 192v0c106.039 0 192-85.961 192-192s-85.961-192-192-192zM512 192c141.385 0 256 114.615 256 256s-114.615 256-256 256v0c-141.385 0-256-114.615-256-256s114.615-256 256-256v0zM512 960c17.673 0 32-14.327 32-32v0-128c0-17.673-14.327-32-32-32s-32 14.327-32 32v0 128c0 17.673 14.327 32 32 32v0zM512 128c17.673 0 32-14.327 32-32v0-128c0-17.673-14.327-32-32-32s-32 14.327-32 32v0 128c0 17.673 14.327 32 32 32v0zM1024 448c0-17.673-14.327-32-32-32v0h-128c-17.673 0-32 14.327-32 32s14.327 32 32 32v0h128c17.673 0 32-14.327 32-32v0zM192 448c0-17.673-14.327-32-32-32v0h-128c-17.673 0-32 14.327-32 32s14.327 32 32 32v0h128c17.673 0 32-14.327 32-32v0zM874.048 810.048c5.789-5.791 9.369-13.789 9.369-22.624s-3.58-16.833-9.369-22.624l-90.496-90.56c-5.792-5.785-13.79-9.362-22.624-9.362-17.683 0-32.018 14.335-32.018 32.018 0 8.849 3.59 16.86 9.393 22.656v0l90.496 90.496c5.791 5.789 13.789 9.369 22.624 9.369s16.833-3.58 22.624-9.369v0zM285.696 221.696c5.789-5.791 9.369-13.789 9.369-22.624s-3.58-16.833-9.369-22.624l-90.496-90.496c-5.749-5.558-13.59-8.983-22.231-8.983-17.673 0-32 14.327-32 32 0 8.641 3.425 16.482 8.991 22.24l90.487 90.487c5.791 5.789 13.789 9.369 22.624 9.369s16.833-3.58 22.624-9.369v0zM874.048 85.952c-5.791-5.789-13.789-9.369-22.624-9.369s-16.833 3.58-22.624 9.369l-90.496 90.496c-5.558 5.749-8.983 13.59-8.983 22.231 0 17.673 14.327 32 32 32 8.641 0 16.482-3.425 22.24-8.991l90.487-90.487c5.789-5.791 9.369-13.789 9.369-22.624s-3.58-16.833-9.369-22.624v0zM285.696 674.24c-5.791-5.789-13.789-9.369-22.624-9.369s-16.833 3.58-22.624 9.369v0l-90.496 90.56c-6.027 5.827-9.769 13.985-9.769 23.017 0 17.673 14.327 32 32 32 9.032 0 17.19-3.742 23.009-9.76l90.505-90.505c5.808-5.794 9.401-13.805 9.401-22.656s-3.593-16.862-9.401-22.655l-0.001-0.001z" />
<glyph unicode="&#xe964;" glyph-name="brightness-low-fill" d="M768 448c0-141.385-114.615-256-256-256s-256 114.615-256 256c0 141.385 114.615 256 256 256s256-114.615 256-256zM544 800c0-17.673-14.327-32-32-32s-32 14.327-32 32c0 17.673 14.327 32 32 32s32-14.327 32-32zM544 96c0-17.673-14.327-32-32-32s-32 14.327-32 32c0 17.673 14.327 32 32 32s32-14.327 32-32zM864 416c-17.673 0-32 14.327-32 32s14.327 32 32 32c17.673 0 32-14.327 32-32s-14.327-32-32-32zM160 416c-17.673 0-32 14.327-32 32s14.327 32 32 32c17.673 0 32-14.327 32-32s-14.327-32-32-32zM783.497 674.333c-12.497-12.497-32.758-12.497-45.255 0s-12.497 32.758 0 45.255c12.497 12.497 32.758 12.497 45.255 0s12.497-32.758 0-45.255zM285.758 176.413c-12.497-12.497-32.758-12.497-45.255 0s-12.497 32.758 0 45.255c12.497 12.497 32.758 12.497 45.255 0s12.497-32.758 0-45.255zM738.378 176.522c-12.497 12.497-12.497 32.758 0 45.255s32.758 12.497 45.255 0c12.497-12.497 12.497-32.758 0-45.255s-32.758-12.497-45.255 0zM240.322 674.333c-12.497 12.497-12.497 32.758 0 45.255s32.758 12.497 45.255 0c12.497-12.497 12.497-32.758 0-45.255s-32.758-12.497-45.255 0z" />
<glyph unicode="&#xe965;" glyph-name="brightness-low" d="M512 256v0c-106.039 0-192 85.961-192 192s85.961 192 192 192v0c106.039 0 192-85.961 192-192s-85.961-192-192-192zM512 192c141.385 0 256 114.615 256 256s-114.615 256-256 256v0c-141.385 0-256-114.615-256-256s114.615-256 256-256v0zM544 800c0-17.673-14.327-32-32-32s-32 14.327-32 32c0 17.673 14.327 32 32 32s32-14.327 32-32zM544 96c0-17.673-14.327-32-32-32s-32 14.327-32 32c0 17.673 14.327 32 32 32s32-14.327 32-32zM864 416c-17.673 0-32 14.327-32 32s14.327 32 32 32c17.673 0 32-14.327 32-32s-14.327-32-32-32zM160 416c-17.673 0-32 14.327-32 32s14.327 32 32 32c17.673 0 32-14.327 32-32s-14.327-32-32-32zM783.497 674.333c-12.497-12.497-32.758-12.497-45.255 0s-12.497 32.758 0 45.255c12.497 12.497 32.758 12.497 45.255 0s12.497-32.758 0-45.255zM285.758 176.413c-12.497-12.497-32.758-12.497-45.255 0s-12.497 32.758 0 45.255c12.497 12.497 32.758 12.497 45.255 0s12.497-32.758 0-45.255zM738.378 176.522c-12.497 12.497-12.497 32.758 0 45.255s32.758 12.497 45.255 0c12.497-12.497 12.497-32.758 0-45.255s-32.758-12.497-45.255 0zM240.322 674.333c-12.497 12.497-12.497 32.758 0 45.255s32.758 12.497 45.255 0c12.497-12.497 12.497-32.758 0-45.255s-32.758-12.497-45.255 0z" />
<glyph unicode="&#xe966;" glyph-name="brush" d="M973.632 894.848c6.119 4.765 13.915 7.639 22.382 7.639 10.167 0 19.366-4.145 26-10.836l0.003-0.003c6.706-6.618 10.86-15.809 10.86-25.969 0-8.204-2.708-15.776-7.279-21.869l0.068 0.094c-60.224-81.152-254.848-338.752-411.264-495.104-45.44-45.44-90.88-79.552-124.928-102.144-32.512-21.696-74.688-14.976-102.336 12.608-26.624 26.624-33.92 67.008-13.568 98.752 22.144 34.688 56.768 81.472 105.088 126.528 161.344 150.4 414.464 348.16 494.976 410.304zM448 192c0-70.692-57.308-128-128-128v0c-64 0-128 0-224 32s32 64 64 96 89.28 128 160 128c70.692 0 128-57.308 128-128v0z" />
<glyph unicode="&#xe967;" glyph-name="bucket-fill" d="M512 864c-159.058 0-288-128.942-288-288v0h-64c0 194.404 157.596 352 352 352s352-157.596 352-352v0h-64c0 159.058-128.942 288-288 288v0zM103.040 596.032c5.914 7.323 14.892 11.968 24.954 11.968 0.002 0 0.004 0 0.006 0h768c17.668-0.007 31.987-14.331 31.987-32 0-2.45-0.275-4.835-0.796-7.127l0.041 0.215-116.864-525.888c-9.864-43.332-48.058-75.188-93.695-75.2h-409.345c-45.638 0.012-83.832 31.868-93.572 74.556l-0.124 0.644-116.864 525.888c-0.476 2.068-0.748 4.442-0.748 6.88 0 7.596 2.647 14.574 7.068 20.062l-0.048-0.062z" />
<glyph unicode="&#xe968;" glyph-name="bucket" d="M512 864c-159.058 0-288-128.942-288-288v0h-64c0 194.404 157.596 352 352 352s352-157.596 352-352v0h-64c0 159.058-128.942 288-288 288v0zM103.040 596.032c5.914 7.323 14.892 11.968 24.954 11.968 0.002 0 0.004 0 0.006 0h768c17.668-0.007 31.987-14.331 31.987-32 0-2.45-0.275-4.835-0.796-7.127l0.041 0.215-116.864-525.888c-9.864-43.332-48.058-75.188-93.695-75.2h-409.345c-45.638 0.012-83.832 31.868-93.572 74.556l-0.124 0.644-116.864 525.888c-0.476 2.068-0.748 4.442-0.748 6.88 0 7.596 2.647 14.574 7.068 20.062l-0.048-0.062zM167.872 544l108.224-486.912c3.279-14.453 16.014-25.082 31.231-25.088h409.345c15.218 0.006 27.953 10.635 31.191 24.873l0.041 0.215 108.16 486.912h-688.128z" />
<glyph unicode="&#xe969;" glyph-name="building" d="M978.24 954.304c8.361-5.855 13.76-15.443 13.76-26.293 0-0.004 0-0.008 0-0.012v0.001-960c0-17.673-14.327-32-32-32v0h-192c-17.673 0-32 14.327-32 32v0 96h-64v-96c0-17.673-14.327-32-32-32v0h-576c-17.673 0-32 14.327-32 32v0 384c0.008 15.813 11.484 28.944 26.562 31.525l0.19 0.027 357.248 59.52v292.928c0 13.626 8.517 25.263 20.517 29.878l0.219 0.074 512 192c3.337 1.289 7.198 2.036 11.233 2.036 6.81 0 13.122-2.127 18.31-5.753l-0.104 0.069zM480 713.856v-297.856c-0.008-15.813-11.484-28.944-26.562-31.525l-0.19-0.027-357.248-59.52v-324.928h512v96c0 17.673 14.327 32 32 32v0h128c17.673 0 32-14.327 32-32v0-96h128v881.792l-448-167.936zM416-32v448h64v-448h-64zM160 256h64v-64h-64v64zM288 256h64v-64h-64v64zM160 128h64v-64h-64v64zM288 128h64v-64h-64v64zM672 768h64v-64h-64v64zM800 768h64v-64h-64v64zM544 640h64v-64h-64v64zM672 640h64v-64h-64v64zM800 640h64v-64h-64v64zM672 512h64v-64h-64v64zM800 512h64v-64h-64v64zM544 512h64v-64h-64v64zM544 384h64v-64h-64v64zM672 384h64v-64h-64v64zM800 384h64v-64h-64v64zM544 256h64v-64h-64v64zM672 256h64v-64h-64v64zM800 256h64v-64h-64v64z" />
<glyph unicode="&#xe96a;" glyph-name="bullseye" d="M512 0v0c-247.424 0-448 200.576-448 448s200.576 448 448 448v0c247.424 0 448-200.576 448-448s-200.576-448-448-448zM512-64c282.77 0 512 229.23 512 512s-229.23 512-512 512v0c-282.77 0-512-229.23-512-512s229.23-512 512-512v0zM512 128v0c-176.731 0-320 143.269-320 320s143.269 320 320 320v0c176.731 0 320-143.269 320-320s-143.269-320-320-320zM512 64c212.077 0 384 171.923 384 384s-171.923 384-384 384v0c-212.077 0-384-171.923-384-384s171.923-384 384-384v0zM512 256v0c-106.039 0-192 85.961-192 192s85.961 192 192 192v0c106.039 0 192-85.961 192-192s-85.961-192-192-192zM512 192c141.385 0 256 114.615 256 256s-114.615 256-256 256v0c-141.385 0-256-114.615-256-256s114.615-256 256-256v0zM608 448c0-53.019-42.981-96-96-96s-96 42.981-96 96v0c0 53.019 42.981 96 96 96s96-42.981 96-96v0z" />
<glyph unicode="&#xe96b;" glyph-name="calendar-fill" d="M0 832c0 70.692 57.308 128 128 128v0h768c70.692 0 128-57.308 128-128v0h-1024zM0 768h1024v-704c0-70.692-57.308-128-128-128v0h-768c-70.692 0-128 57.308-128 128v0 704zM416 512c35.346 0 64 28.654 64 64s-28.654 64-64 64v0c-35.346 0-64-28.654-64-64s28.654-64 64-64v0zM672 576c0-35.346-28.654-64-64-64s-64 28.654-64 64v0c0 35.346 28.654 64 64 64s64-28.654 64-64v0zM800 512c35.346 0 64 28.654 64 64s-28.654 64-64 64v0c-35.346 0-64-28.654-64-64s28.654-64 64-64v0zM288 384c0-35.346-28.654-64-64-64s-64 28.654-64 64v0c0 35.346 28.654 64 64 64s64-28.654 64-64v0zM416 320c35.346 0 64 28.654 64 64s-28.654 64-64 64v0c-35.346 0-64-28.654-64-64s28.654-64 64-64v0zM672 384c0-35.346-28.654-64-64-64s-64 28.654-64 64v0c0 35.346 28.654 64 64 64s64-28.654 64-64v0zM800 320c35.346 0 64 28.654 64 64s-28.654 64-64 64v0c-35.346 0-64-28.654-64-64s28.654-64 64-64v0zM288 192c0-35.346-28.654-64-64-64s-64 28.654-64 64v0c0 35.346 28.654 64 64 64s64-28.654 64-64v0zM416 128c35.346 0 64 28.654 64 64s-28.654 64-64 64v0c-35.346 0-64-28.654-64-64s28.654-64 64-64v0zM672 192c0-35.346-28.654-64-64-64s-64 28.654-64 64v0c0 35.346 28.654 64 64 64s64-28.654 64-64v0z" />
<glyph unicode="&#xe96c;" glyph-name="calendar" d="M896 960h-768c-70.692 0-128-57.308-128-128v0-768c0-70.692 57.308-128 128-128v0h768c70.692 0 128 57.308 128 128v0 768c0 70.692-57.308 128-128 128v0zM64 713.152c0 30.272 28.672 54.848 64 54.848h768c35.328 0 64-24.576 64-54.848v-658.304c0-30.272-28.672-54.848-64-54.848h-768c-35.328 0-64 24.576-64 54.848v658.304zM416 512c35.346 0 64 28.654 64 64s-28.654 64-64 64v0c-35.346 0-64-28.654-64-64s28.654-64 64-64v0zM608 512c35.346 0 64 28.654 64 64s-28.654 64-64 64v0c-35.346 0-64-28.654-64-64s28.654-64 64-64v0zM800 512c35.346 0 64 28.654 64 64s-28.654 64-64 64v0c-35.346 0-64-28.654-64-64s28.654-64 64-64v0zM224 320c35.346 0 64 28.654 64 64s-28.654 64-64 64v0c-35.346 0-64-28.654-64-64s28.654-64 64-64v0zM416 320c35.346 0 64 28.654 64 64s-28.654 64-64 64v0c-35.346 0-64-28.654-64-64s28.654-64 64-64v0zM608 320c35.346 0 64 28.654 64 64s-28.654 64-64 64v0c-35.346 0-64-28.654-64-64s28.654-64 64-64v0zM800 320c35.346 0 64 28.654 64 64s-28.654 64-64 64v0c-35.346 0-64-28.654-64-64s28.654-64 64-64v0zM224 128c35.346 0 64 28.654 64 64s-28.654 64-64 64v0c-35.346 0-64-28.654-64-64s28.654-64 64-64v0zM416 128c35.346 0 64 28.654 64 64s-28.654 64-64 64v0c-35.346 0-64-28.654-64-64s28.654-64 64-64v0zM608 128c35.346 0 64 28.654 64 64s-28.654 64-64 64v0c-35.346 0-64-28.654-64-64s28.654-64 64-64v0z" />
<glyph unicode="&#xe96d;" glyph-name="camera-video-fill" d="M170.688 768h426.624c58.88 0 106.688-47.744 106.688-106.688v-426.624c0-58.88-47.744-106.688-106.688-106.688h-426.624c-58.88 0-106.688 47.744-106.688 106.688v426.624c0 58.88 47.744 106.688 106.688 106.688zM473.856 403.392l407.232-236.288c34.56-20.032 78.912 4.224 78.912 44.608v472.576c0 40.32-44.352 64.64-78.912 44.544l-407.232-236.288c-15.572-9.011-25.881-25.59-25.881-44.576s10.309-35.565 25.635-44.444l0.247-0.132z" />
<glyph unicode="&#xe96e;" glyph-name="camera-video" d="M170.688 736c-41.28 0-74.688-33.408-74.688-74.688v-426.624c0-41.28 33.408-74.688 74.688-74.688h426.624c41.28 0 74.688 33.408 74.688 74.688v426.624c0 41.28-33.408 74.688-74.688 74.688h-426.624zM32 661.312c0 76.608 62.080 138.688 138.688 138.688h426.624c76.608 0 138.688-62.080 138.688-138.688v-426.624c0-76.608-62.080-138.688-138.688-138.688h-426.624c-76.595 0-138.688 62.093-138.688 138.688v0 426.624zM720 598.4l177.152 102.72c2.997 1.834 6.624 2.921 10.505 2.921 11.029 0 20.010-8.773 20.342-19.722l0.001-0.031v-472.576c0-14.592-16.64-25.152-30.848-16.896l-177.088 102.72-32.128-55.36 177.088-102.72c54.976-31.872 126.976 6.080 126.976 72.256v472.576c0 66.112-72 104.064-126.976 72.192l-177.024-102.72 32.128-55.36z" />
<glyph unicode="&#xe96f;" glyph-name="camera" d="M576 640c-106.048 0-256-85.952-256-192 0 141.385 114.615 256 256 256v0-64zM917.312 768c58.944 0 106.688-47.808 106.688-106.688v-426.624c0-58.944-47.808-106.688-106.688-106.688h-128.96l1.367 0.866c-60.889-40.962-134.208-64.867-213.11-64.867-0.214 0-0.428 0-0.609 0-78.528 0-151.552 23.552-212.352 64h-256.96c-58.944 0-106.688 47.808-106.688 106.688v426.624c0 58.944 47.808 106.688 106.688 106.688h256.96l-1.366-0.866c60.882 40.962 134.194 64.867 213.090 64.867 0.221 0 0.442 0 0.628-0.001h-0.036c0.234 0 0.469 0.001 0.703 0.001 78.883 0 152.183-23.905 211.685-64.001h128.96zM96 640c17.673 0 32 14.327 32 32s-14.327 32-32 32v0c-17.673 0-32-14.327-32-32s14.327-32 32-32v0zM576 128c176.731 0 320 143.269 320 320s-143.269 320-320 320v0c-176.731 0-320-143.269-320-320s143.269-320 320-320v0zM128 768c0 35.346 28.654 64 64 64v0h64c35.346 0 64-28.654 64-64s-28.654-64-64-64v0h-64c-35.346 0-64 28.654-64 64v0z" />
<glyph unicode="&#xe970;" glyph-name="capslock-fill" d="M465.28 892.992c11.708 12.483 28.306 20.259 46.72 20.259s35.012-7.777 46.688-20.225l0.032-0.035 406.080-433.28c38.4-40.832 9.344-107.712-46.72-107.712h-182.080v-64c0-35.346-28.654-64-64-64v0h-320c-35.346 0-64 28.654-64 64v0 64h-182.144c-55.936 0-84.992 66.88-46.72 107.776l406.144 433.216zM288 96c0 35.346 28.654 64 64 64v0h320c35.346 0 64-28.654 64-64v0-64c0-35.346-28.654-64-64-64v0h-320c-35.346 0-64 28.654-64 64v0 64z" />
<glyph unicode="&#xe971;" glyph-name="capslock" d="M465.28 892.992c11.708 12.483 28.306 20.259 46.72 20.259s35.012-7.777 46.688-20.225l0.032-0.035 406.080-433.28c38.4-40.832 9.344-107.712-46.72-107.712h-182.080v-64c0-35.346-28.654-64-64-64v0h-320c-35.346 0-64 28.654-64 64v0 64h-182.144c-55.936 0-84.992 66.88-46.72 107.776l406.144 433.216zM918.144 416l-406.144 433.216-406.144-433.216h182.144c35.346 0 64-28.654 64-64v0-64h320v64c0 35.346 28.654 64 64 64v0h182.144zM288 96c0 35.346 28.654 64 64 64v0h320c35.346 0 64-28.654 64-64v0-64c0-35.346-28.654-64-64-64v0h-320c-35.346 0-64 28.654-64 64v0 64zM672 96h-320v-64h320v64z" />
<glyph unicode="&#xe972;" glyph-name="card-checklist" d="M928 768v0c17.673 0 32-14.327 32-32v-576c0-17.673-14.327-32-32-32h-832c-17.673 0-32 14.327-32 32v576c0 17.673 14.327 32 32 32h832zM96 832c-53.019 0-96-42.981-96-96v0-576c0-53.019 42.981-96 96-96v0h832c53.019 0 96 42.981 96 96v0 576c0 53.019-42.981 96-96 96v0h-832zM448 608c0 17.673 14.327 32 32 32v0h320c17.673 0 32-14.327 32-32s-14.327-32-32-32v0h-320c-17.673 0-32 14.327-32 32v0zM352.256 662.656c5.808-5.794 9.401-13.805 9.401-22.656s-3.593-16.862-9.401-22.655l-96.001-96.001c-5.794-5.808-13.805-9.401-22.656-9.401s-16.862 3.593-22.655 9.401l-32.001 32.001c-5.798 5.798-9.384 13.808-9.384 22.656 0 17.695 14.345 32.040 32.040 32.040 8.848 0 16.858-3.586 22.656-9.384v0l9.344-9.408 73.344 73.408c5.794 5.808 13.805 9.401 22.656 9.401s16.862-3.593 22.655-9.401l0.001-0.001zM448 352c0 17.673 14.327 32 32 32v0h320c17.673 0 32-14.327 32-32s-14.327-32-32-32v0h-320c-17.673 0-32 14.327-32 32v0zM352.256 406.656c5.808-5.794 9.401-13.805 9.401-22.656s-3.593-16.862-9.401-22.655l-96.001-96.001c-5.794-5.808-13.805-9.401-22.656-9.401s-16.862 3.593-22.655 9.401l-32.001 32.001c-5.798 5.798-9.384 13.808-9.384 22.656 0 17.695 14.345 32.040 32.040 32.040 8.848 0 16.858-3.586 22.656-9.384v0l9.344-9.408 73.344 73.408c5.794 5.808 13.805 9.401 22.656 9.401s16.862-3.593 22.655-9.401l0.001-0.001z" />
<glyph unicode="&#xe973;" glyph-name="card-heading" d="M928 768v0c17.673 0 32-14.327 32-32v-576c0-17.673-14.327-32-32-32h-832c-17.673 0-32 14.327-32 32v576c0 17.673 14.327 32 32 32h832zM96 832c-53.019 0-96-42.981-96-96v0-576c0-53.019 42.981-96 96-96v0h832c53.019 0 96 42.981 96 96v0 576c0 53.019-42.981 96-96 96v0h-832zM192 416c0 17.673 14.327 32 32 32v0h576c17.673 0 32-14.327 32-32s-14.327-32-32-32v0h-576c-17.673 0-32 14.327-32 32v0zM192 288c0 17.673 14.327 32 32 32v0h384c17.673 0 32-14.327 32-32s-14.327-32-32-32v0h-384c-17.673 0-32 14.327-32 32v0zM192 608c0 17.673 14.327 32 32 32v0h576c17.673 0 32-14.327 32-32v0-64c0-17.673-14.327-32-32-32v0h-576c-17.673 0-32 14.327-32 32v0 64z" />
<glyph unicode="&#xe974;" glyph-name="card-image" d="M928 768v0c17.673 0 32-14.327 32-32v-576c0-17.673-14.327-32-32-32h-832c-17.673 0-32 14.327-32 32v576c0 17.673 14.327 32 32 32h832zM96 832c-53.019 0-96-42.981-96-96v0-576c0-53.019 42.981-96 96-96v0h832c53.019 0 96 42.981 96 96v0 576c0 53.019-42.981 96-96 96v0h-832zM681.472 470.656c5.788 5.772 13.775 9.341 22.596 9.341 5.225 0 10.157-1.252 14.514-3.473l-0.181 0.084 241.728-124.608v-224h-896v64l169.344 150.656c5.787 5.766 13.77 9.331 22.586 9.331 6.609 0 12.749-2.003 17.848-5.436l-0.114 0.072 170.24-113.472 237.44 237.44zM288.128 512c53.019 0 96 42.981 96 96s-42.981 96-96 96v0c-53.019 0-96-42.981-96-96s42.981-96 96-96v0z" />
<glyph unicode="&#xe975;" glyph-name="card-list" d="M928 768v0c17.673 0 32-14.327 32-32v-576c0-17.673-14.327-32-32-32h-832c-17.673 0-32 14.327-32 32v576c0 17.673 14.327 32 32 32h832zM96 832c-53.019 0-96-42.981-96-96v0-576c0-53.019 42.981-96 96-96v0h832c53.019 0 96 42.981 96 96v0 576c0 53.019-42.981 96-96 96v0h-832zM320 448c0 17.673 14.327 32 32 32v0h448c17.673 0 32-14.327 32-32s-14.327-32-32-32v0h-448c-17.673 0-32 14.327-32 32v0zM320 608c0 17.673 14.327 32 32 32v0h448c17.673 0 32-14.327 32-32s-14.327-32-32-32v0h-448c-17.673 0-32 14.327-32 32v0zM320 288c0 17.673 14.327 32 32 32v0h448c17.673 0 32-14.327 32-32s-14.327-32-32-32v0h-448c-17.673 0-32 14.327-32 32v0zM256 608c0-17.673-14.327-32-32-32s-32 14.327-32 32c0 17.673 14.327 32 32 32s32-14.327 32-32zM256 448c0-17.673-14.327-32-32-32s-32 14.327-32 32c0 17.673 14.327 32 32 32s32-14.327 32-32zM256 288c0-17.673-14.327-32-32-32s-32 14.327-32 32c0 17.673 14.327 32 32 32s32-14.327 32-32z" />
</font>
</defs>
</svg>
